<svg width="1440" height="2213" viewBox="0 0 1440 2213" fill="none" xmlns="http://www.w3.org/2000/svg">
<g opacity="0.7">
<g opacity="0.4">
<mask id="mask0_1_9" style="mask-type:alpha" maskUnits="userSpaceOnUse" x="66" y="505" width="1097" height="1201">
<rect x="451.347" y="505.047" width="774.452" height="973.759" transform="rotate(23.298 451.347 505.047)" fill="url(#paint0_linear_1_9)"/>
</mask>
<g mask="url(#mask0_1_9)">
<path d="M819.391 1344.51C756.989 1489.42 588.931 1556.3 444.023 1493.9C299.114 1431.5 232.229 1263.44 294.631 1118.53C357.032 973.626 441.006 1102 585.915 1164.4C730.823 1226.8 881.793 1199.6 819.391 1344.51Z" fill="#579AFF"/>
<g filter="url(#filter0_f_1_9)">
<path d="M817.136 1349.74C768.832 1461.91 612.202 1502.26 467.294 1439.86C322.385 1377.46 244.072 1235.94 292.376 1123.77C340.68 1011.59 497.31 971.247 642.219 1033.65C787.127 1096.05 865.441 1237.57 817.136 1349.74Z" fill="#579AFF"/>
</g>
<g filter="url(#filter1_f_1_9)">
<ellipse cx="559.259" cy="1226.3" rx="285.674" ry="221.136" transform="rotate(23.298 559.259 1226.3)" fill="#579AFF"/>
</g>
<g filter="url(#filter2_f_1_9)">
<ellipse cx="571.649" cy="1197.53" rx="285.674" ry="222.085" transform="rotate(23.298 571.649 1197.53)" fill="#579AFF"/>
</g>
<g filter="url(#filter3_f_1_9)">
<ellipse cx="608.81" cy="1111.23" rx="285.674" ry="221.136" transform="rotate(23.298 608.81 1111.23)" fill="#579AFF"/>
</g>
<g filter="url(#filter4_f_1_9)">
<ellipse cx="659.11" cy="994.424" rx="240.118" ry="221.136" transform="rotate(23.298 659.11 994.424)" fill="#579AFF"/>
</g>
</g>
<mask id="mask1_1_9" style="mask-type:alpha" maskUnits="userSpaceOnUse" x="285" y="849" width="1071" height="900">
<rect x="1250.37" y="849.13" width="774.452" height="973.759" transform="rotate(82.2095 1250.37 849.13)" fill="url(#paint1_linear_1_9)"/>
</mask>
<g mask="url(#mask1_1_9)">
<path d="M721.525 1597.78C565.207 1619.17 421.15 1509.78 399.764 1353.47C378.377 1197.15 487.76 1053.09 644.078 1031.71C800.395 1010.32 733.82 1148.52 755.206 1304.84C776.592 1461.15 877.842 1576.39 721.525 1597.78Z" fill="#FF4DED"/>
<g filter="url(#filter5_f_1_9)">
<path d="M715.883 1598.55C594.88 1615.11 479.45 1501.81 458.064 1345.49C436.677 1189.17 517.433 1049.03 638.436 1032.48C759.439 1015.92 874.868 1129.22 896.254 1285.54C917.641 1441.86 836.886 1582 715.883 1598.55Z" fill="#FF4DED"/>
</g>
<g filter="url(#filter6_f_1_9)">
<ellipse cx="688.444" cy="1313.97" rx="285.674" ry="221.136" transform="rotate(82.2095 688.444 1313.97)" fill="#FF4DED"/>
</g>
<g filter="url(#filter7_f_1_9)">
<ellipse cx="719.473" cy="1309.73" rx="285.674" ry="222.085" transform="rotate(82.2095 719.473 1309.73)" fill="#FF4DED"/>
</g>
<g filter="url(#filter8_f_1_9)">
<ellipse cx="812.566" cy="1296.99" rx="285.674" ry="221.136" transform="rotate(82.2095 812.566 1296.99)" fill="#FF4DED"/>
</g>
<g filter="url(#filter9_f_1_9)">
<ellipse cx="938.57" cy="1279.75" rx="240.118" ry="221.136" transform="rotate(82.2095 938.57 1279.75)" fill="#FF4DED"/>
</g>
</g>
</g>
<g opacity="0.25">
<mask id="mask2_1_9" style="mask-type:alpha" maskUnits="userSpaceOnUse" x="185" y="1055" width="1209" height="760">
<rect x="1393.9" y="1523.86" width="316.789" height="1179.28" transform="rotate(113.413 1393.9 1523.86)" fill="url(#paint2_linear_1_9)"/>
</mask>
<g mask="url(#mask2_1_9)">
<path d="M589.904 1474.4C414.565 1398.48 293.213 1288.92 318.857 1229.69C344.502 1170.47 507.432 1184.01 682.772 1259.93C858.111 1335.86 743.198 1343.11 717.554 1402.33C691.909 1461.56 765.244 1550.32 589.904 1474.4Z" fill="#57AEFF"/>
<g filter="url(#filter10_f_1_9)">
<path d="M583.573 1471.66C447.845 1412.88 358.605 1317.23 384.249 1258.01C409.894 1198.78 540.712 1198.42 676.44 1257.19C812.168 1315.96 901.408 1411.62 875.764 1470.84C850.119 1530.06 719.301 1530.43 583.573 1471.66Z" fill="#57AEFF"/>
</g>
<g filter="url(#filter11_f_1_9)">
<ellipse cx="642.662" cy="1369.9" rx="116.855" ry="267.808" transform="rotate(113.413 642.662 1369.9)" fill="#57AEFF"/>
</g>
<g filter="url(#filter12_f_1_9)">
<ellipse cx="677.473" cy="1384.98" rx="116.855" ry="268.957" transform="rotate(113.413 677.473 1384.98)" fill="#57AEFF"/>
</g>
<g filter="url(#filter13_f_1_9)">
<ellipse cx="781.891" cy="1430.19" rx="116.855" ry="267.808" transform="rotate(113.413 781.891 1430.19)" fill="#57AEFF"/>
</g>
<g filter="url(#filter14_f_1_9)">
<ellipse cx="923.228" cy="1491.39" rx="98.2202" ry="267.808" transform="rotate(113.413 923.228 1491.39)" fill="#57AEFF"/>
</g>
</g>
<mask id="mask3_1_9" style="mask-type:alpha" maskUnits="userSpaceOnUse" x="27" y="1126" width="1226" height="725">
<rect width="819.557" height="697.734" transform="matrix(-0.978529 -0.20611 -0.606185 -0.795324 1252.49 1850.42)" fill="url(#paint3_linear_1_9)"/>
</mask>
<g mask="url(#mask3_1_9)">
<path d="M286.697 1347.69C218.12 1257.77 294.986 1212.79 458.384 1247.23C621.782 1281.67 809.835 1382.48 878.412 1472.41C946.989 1562.33 777.717 1486.14 614.319 1451.7C450.921 1417.26 355.274 1437.61 286.697 1347.69Z" fill="#4A46FF"/>
<g filter="url(#filter15_f_1_9)">
<path d="M284.221 1344.44C231.137 1274.84 320.563 1246.33 483.96 1280.77C647.358 1315.21 822.851 1399.55 875.936 1469.16C929.021 1538.77 839.595 1567.28 676.197 1532.84C512.8 1498.4 337.306 1414.05 284.221 1344.44Z" fill="#4A46FF"/>
</g>
<g filter="url(#filter16_f_1_9)">
<ellipse cx="302.312" cy="158.452" rx="302.312" ry="158.452" transform="matrix(-0.978649 -0.206268 -0.60661 -0.795413 977.007 1601.69)" fill="#4A46FF"/>
</g>
<g filter="url(#filter17_f_1_9)">
<ellipse cx="302.312" cy="159.132" rx="302.312" ry="159.132" transform="matrix(-0.978649 -0.206268 -0.60661 -0.795413 991.031 1620.08)" fill="#4A46FF"/>
</g>
<g filter="url(#filter18_f_1_9)">
<ellipse cx="302.312" cy="158.452" rx="302.312" ry="158.452" transform="matrix(-0.978649 -0.206268 -0.60661 -0.795413 1031.46 1673.09)" fill="#4A46FF"/>
</g>
<g filter="url(#filter19_f_1_9)">
<ellipse cx="254.103" cy="158.452" rx="254.103" ry="158.452" transform="matrix(-0.978649 -0.206268 -0.60661 -0.795413 1039.56 1735.63)" fill="#4A46FF"/>
</g>
</g>
</g>
<g opacity="0.4">
<mask id="mask4_1_9" style="mask-type:alpha" maskUnits="userSpaceOnUse" x="-37" y="437" width="917" height="1108">
<rect x="-36.6077" y="512.886" width="824.179" height="1036.28" transform="rotate(-5.25908 -36.6077 512.886)" fill="url(#paint4_linear_1_9)"/>
</mask>
<g mask="url(#mask4_1_9)">
<path d="M734.476 1110.33C749.866 1277.53 626.802 1425.54 459.604 1440.93C292.407 1456.32 144.391 1333.26 129.001 1166.06C113.611 998.866 257.413 1076.14 424.61 1060.75C591.807 1045.36 719.086 943.134 734.476 1110.33Z" fill="#2C67FF"/>
<g filter="url(#filter20_f_1_9)">
<path d="M735.035 1116.36C746.949 1245.79 621.066 1363.18 453.869 1378.57C286.672 1393.96 141.474 1301.52 129.561 1172.1C117.648 1042.67 243.53 925.275 410.728 909.885C577.925 894.495 723.122 986.938 735.035 1116.36Z" fill="#2C67FF"/>
</g>
<g filter="url(#filter21_f_1_9)">
<ellipse cx="431.185" cy="1132.16" rx="304.017" ry="235.335" transform="rotate(-5.25908 431.185 1132.16)" fill="#2C67FF"/>
</g>
<g filter="url(#filter22_f_1_9)">
<ellipse cx="428.131" cy="1098.97" rx="304.017" ry="236.345" transform="rotate(-5.25908 428.131 1098.97)" fill="#2C67FF"/>
</g>
<g filter="url(#filter23_f_1_9)">
<ellipse cx="418.966" cy="999.4" rx="304.017" ry="235.335" transform="rotate(-5.25908 418.966 999.4)" fill="#2C67FF"/>
</g>
<g filter="url(#filter24_f_1_9)">
<ellipse cx="406.559" cy="864.626" rx="255.536" ry="235.335" transform="rotate(-5.25908 406.559 864.626)" fill="#2C67FF"/>
</g>
</g>
<mask id="mask5_1_9" style="mask-type:alpha" maskUnits="userSpaceOnUse" x="-176" y="742" width="801" height="740">
<rect x="-175.449" y="1202.27" width="510.45" height="641.816" transform="rotate(-64.1706 -175.449 1202.27)" fill="url(#paint5_linear_1_9)"/>
</mask>
<g mask="url(#mask5_1_9)">
<path d="M388.023 984.363C481.625 1029.67 520.774 1142.28 475.466 1235.88C430.158 1329.48 317.55 1368.63 223.949 1323.32C130.348 1278.01 217.323 1226.46 262.631 1132.86C307.939 1039.26 294.422 939.055 388.023 984.363Z" fill="#094EFF"/>
<g filter="url(#filter25_f_1_9)">
<path d="M391.402 985.999C463.858 1021.07 485.865 1125.38 440.557 1218.98C395.249 1312.58 299.783 1360.03 227.328 1324.96C154.872 1289.89 132.865 1185.58 178.173 1091.97C223.481 998.374 318.947 950.927 391.402 985.999Z" fill="#094EFF"/>
</g>
<g filter="url(#filter26_f_1_9)">
<ellipse cx="302.61" cy="1152.21" rx="188.291" ry="145.754" transform="rotate(-64.1706 302.61 1152.21)" fill="#094EFF"/>
</g>
<g filter="url(#filter27_f_1_9)">
<ellipse cx="284.025" cy="1143.21" rx="188.291" ry="146.379" transform="rotate(-64.1706 284.025 1143.21)" fill="#094EFF"/>
</g>
<g filter="url(#filter28_f_1_9)">
<ellipse cx="228.285" cy="1116.23" rx="188.291" ry="145.754" transform="rotate(-64.1706 228.285 1116.23)" fill="#094EFF"/>
</g>
<g filter="url(#filter29_f_1_9)">
<ellipse cx="152.836" cy="1079.71" rx="158.265" ry="145.754" transform="rotate(-64.1706 152.836 1079.71)" fill="#094EFF"/>
</g>
</g>
</g>
<g opacity="0.4">
<mask id="mask6_1_9" style="mask-type:alpha" maskUnits="userSpaceOnUse" x="3" y="965" width="915" height="844">
<rect x="255.708" y="1808.22" width="583.365" height="733.496" transform="rotate(-115.604 255.708 1808.22)" fill="url(#paint6_linear_1_9)"/>
</mask>
<g mask="url(#mask6_1_9)">
<path d="M462.454 1149.46C569.629 1098.1 698.145 1143.35 749.504 1250.53C800.862 1357.7 755.614 1486.22 648.44 1537.58C541.265 1588.93 557.163 1474.48 505.805 1367.31C454.446 1260.13 355.28 1200.82 462.454 1149.46Z" fill="#0066FF"/>
<g filter="url(#filter30_f_1_9)">
<path d="M466.32 1147.61C549.282 1107.85 658.171 1162.5 709.529 1269.68C760.888 1376.85 735.268 1495.96 652.306 1535.72C569.343 1575.47 460.455 1520.82 409.096 1413.65C357.738 1306.47 383.358 1187.36 466.32 1147.61Z" fill="#0066FF"/>
</g>
<g filter="url(#filter31_f_1_9)">
<ellipse cx="551.578" cy="1345.37" rx="215.187" ry="166.574" transform="rotate(-115.604 551.578 1345.37)" fill="#0066FF"/>
</g>
<g filter="url(#filter32_f_1_9)">
<ellipse cx="530.304" cy="1355.57" rx="215.187" ry="167.288" transform="rotate(-115.604 530.304 1355.57)" fill="#0066FF"/>
</g>
<g filter="url(#filter33_f_1_9)">
<ellipse cx="466.476" cy="1386.15" rx="215.187" ry="166.574" transform="rotate(-115.604 466.476 1386.15)" fill="#0066FF"/>
</g>
<g filter="url(#filter34_f_1_9)">
<ellipse cx="380.086" cy="1427.55" rx="180.872" ry="166.574" transform="rotate(-115.604 380.086 1427.55)" fill="#0066FF"/>
</g>
</g>
<mask id="mask7_1_9" style="mask-type:alpha" maskUnits="userSpaceOnUse" x="387" y="1243" width="404" height="488">
<rect x="747.389" y="1730.72" width="361.304" height="454.286" transform="rotate(-174.515 747.389 1730.72)" fill="url(#paint7_linear_1_9)"/>
</mask>
<g mask="url(#mask7_1_9)">
<path d="M464.112 1410.39C471.147 1337.12 536.246 1283.43 609.515 1290.46C682.783 1297.5 736.476 1362.6 729.441 1435.86C722.406 1509.13 666.787 1464.1 593.518 1457.06C520.249 1450.03 457.076 1483.66 464.112 1410.39Z" fill="#096BFF"/>
<g filter="url(#filter35_f_1_9)">
<path d="M464.366 1407.74C469.812 1351.03 533.622 1310.75 606.891 1317.79C680.16 1324.82 735.141 1376.5 729.696 1433.22C724.25 1489.94 660.439 1530.21 587.17 1523.18C513.902 1516.14 458.92 1464.46 464.366 1407.74Z" fill="#096BFF"/>
</g>
<g filter="url(#filter36_f_1_9)">
<ellipse cx="596.522" cy="1425.77" rx="133.275" ry="103.166" transform="rotate(-174.515 596.522 1425.77)" fill="#096BFF"/>
</g>
<g filter="url(#filter37_f_1_9)">
<ellipse cx="595.127" cy="1440.32" rx="133.275" ry="103.609" transform="rotate(-174.515 595.127 1440.32)" fill="#096BFF"/>
</g>
<g filter="url(#filter38_f_1_9)">
<ellipse cx="590.936" cy="1483.95" rx="133.275" ry="103.166" transform="rotate(-174.515 590.936 1483.95)" fill="#096BFF"/>
</g>
<g filter="url(#filter39_f_1_9)">
<ellipse cx="585.266" cy="1543.01" rx="112.022" ry="103.166" transform="rotate(-174.515 585.266 1543.01)" fill="#096BFF"/>
</g>
</g>
</g>
</g>
<defs>
<filter id="filter0_f_1_9" x="271.999" y="998.185" width="565.515" height="477.137" filterUnits="userSpaceOnUse" color-interpolation-filters="sRGB">
<feFlood flood-opacity="0" result="BackgroundImageFix"/>
<feBlend mode="normal" in="SourceGraphic" in2="BackgroundImageFix" result="shape"/>
<feGaussianBlur stdDeviation="3.0545" result="effect1_foregroundBlur_1_9"/>
</filter>
<filter id="filter1_f_1_9" x="261.229" y="972.454" width="596.061" height="507.682" filterUnits="userSpaceOnUse" color-interpolation-filters="sRGB">
<feFlood flood-opacity="0" result="BackgroundImageFix"/>
<feBlend mode="normal" in="SourceGraphic" in2="BackgroundImageFix" result="shape"/>
<feGaussianBlur stdDeviation="10.6908" result="effect1_foregroundBlur_1_9"/>
</filter>
<filter id="filter2_f_1_9" x="242.955" y="912.377" width="657.389" height="570.298" filterUnits="userSpaceOnUse" color-interpolation-filters="sRGB">
<feFlood flood-opacity="0" result="BackgroundImageFix"/>
<feBlend mode="normal" in="SourceGraphic" in2="BackgroundImageFix" result="shape"/>
<feGaussianBlur stdDeviation="25.9633" result="effect1_foregroundBlur_1_9"/>
</filter>
<filter id="filter3_f_1_9" x="219.145" y="765.754" width="779.331" height="690.953" filterUnits="userSpaceOnUse" color-interpolation-filters="sRGB">
<feFlood flood-opacity="0" result="BackgroundImageFix"/>
<feBlend mode="normal" in="SourceGraphic" in2="BackgroundImageFix" result="shape"/>
<feGaussianBlur stdDeviation="56.5083" result="effect1_foregroundBlur_1_9"/>
</filter>
<filter id="filter4_f_1_9" x="223.255" y="571.616" width="871.71" height="845.615" filterUnits="userSpaceOnUse" color-interpolation-filters="sRGB">
<feFlood flood-opacity="0" result="BackgroundImageFix"/>
<feBlend mode="normal" in="SourceGraphic" in2="BackgroundImageFix" result="shape"/>
<feGaussianBlur stdDeviation="99.2713" result="effect1_foregroundBlur_1_9"/>
</filter>
<filter id="filter5_f_1_9" x="448.522" y="1024.76" width="457.275" height="581.505" filterUnits="userSpaceOnUse" color-interpolation-filters="sRGB">
<feFlood flood-opacity="0" result="BackgroundImageFix"/>
<feBlend mode="normal" in="SourceGraphic" in2="BackgroundImageFix" result="shape"/>
<feGaussianBlur stdDeviation="3.0545" result="effect1_foregroundBlur_1_9"/>
</filter>
<filter id="filter6_f_1_9" x="444.534" y="1007.95" width="487.82" height="612.05" filterUnits="userSpaceOnUse" color-interpolation-filters="sRGB">
<feFlood flood-opacity="0" result="BackgroundImageFix"/>
<feBlend mode="normal" in="SourceGraphic" in2="BackgroundImageFix" result="shape"/>
<feGaussianBlur stdDeviation="10.6908" result="effect1_foregroundBlur_1_9"/>
</filter>
<filter id="filter7_f_1_9" x="444.092" y="973.143" width="550.762" height="673.167" filterUnits="userSpaceOnUse" color-interpolation-filters="sRGB">
<feFlood flood-opacity="0" result="BackgroundImageFix"/>
<feBlend mode="normal" in="SourceGraphic" in2="BackgroundImageFix" result="shape"/>
<feGaussianBlur stdDeviation="25.9633" result="effect1_foregroundBlur_1_9"/>
</filter>
<filter id="filter8_f_1_9" x="477.021" y="899.33" width="671.09" height="795.32" filterUnits="userSpaceOnUse" color-interpolation-filters="sRGB">
<feFlood flood-opacity="0" result="BackgroundImageFix"/>
<feBlend mode="normal" in="SourceGraphic" in2="BackgroundImageFix" result="shape"/>
<feGaussianBlur stdDeviation="56.5083" result="effect1_foregroundBlur_1_9"/>
</filter>
<filter id="filter9_f_1_9" x="518.498" y="841.4" width="840.144" height="876.702" filterUnits="userSpaceOnUse" color-interpolation-filters="sRGB">
<feFlood flood-opacity="0" result="BackgroundImageFix"/>
<feBlend mode="normal" in="SourceGraphic" in2="BackgroundImageFix" result="shape"/>
<feGaussianBlur stdDeviation="99.2713" result="effect1_foregroundBlur_1_9"/>
</filter>
<filter id="filter10_f_1_9" x="375.578" y="1209.07" width="508.857" height="310.705" filterUnits="userSpaceOnUse" color-interpolation-filters="sRGB">
<feFlood flood-opacity="0" result="BackgroundImageFix"/>
<feBlend mode="normal" in="SourceGraphic" in2="BackgroundImageFix" result="shape"/>
<feGaussianBlur stdDeviation="2.13896" result="effect1_foregroundBlur_1_9"/>
</filter>
<filter id="filter11_f_1_9" x="377.538" y="1203.86" width="530.247" height="332.094" filterUnits="userSpaceOnUse" color-interpolation-filters="sRGB">
<feFlood flood-opacity="0" result="BackgroundImageFix"/>
<feBlend mode="normal" in="SourceGraphic" in2="BackgroundImageFix" result="shape"/>
<feGaussianBlur stdDeviation="7.48635" result="effect1_foregroundBlur_1_9"/>
</filter>
<filter id="filter12_f_1_9" x="389.924" y="1197.22" width="575.099" height="375.517" filterUnits="userSpaceOnUse" color-interpolation-filters="sRGB">
<feFlood flood-opacity="0" result="BackgroundImageFix"/>
<feBlend mode="normal" in="SourceGraphic" in2="BackgroundImageFix" result="shape"/>
<feGaussianBlur stdDeviation="18.1811" result="effect1_foregroundBlur_1_9"/>
</filter>
<filter id="filter13_f_1_9" x="452.599" y="1199.98" width="658.584" height="460.431" filterUnits="userSpaceOnUse" color-interpolation-filters="sRGB">
<feFlood flood-opacity="0" result="BackgroundImageFix"/>
<feBlend mode="normal" in="SourceGraphic" in2="BackgroundImageFix" result="shape"/>
<feGaussianBlur stdDeviation="39.5707" result="effect1_foregroundBlur_1_9"/>
</filter>
<filter id="filter14_f_1_9" x="535.322" y="1212.9" width="775.812" height="556.986" filterUnits="userSpaceOnUse" color-interpolation-filters="sRGB">
<feFlood flood-opacity="0" result="BackgroundImageFix"/>
<feBlend mode="normal" in="SourceGraphic" in2="BackgroundImageFix" result="shape"/>
<feGaussianBlur stdDeviation="69.5161" result="effect1_foregroundBlur_1_9"/>
</filter>
<filter id="filter15_f_1_9" x="264.637" y="1261.88" width="630.883" height="289.853" filterUnits="userSpaceOnUse" color-interpolation-filters="sRGB">
<feFlood flood-opacity="0" result="BackgroundImageFix"/>
<feBlend mode="normal" in="SourceGraphic" in2="BackgroundImageFix" result="shape"/>
<feGaussianBlur stdDeviation="2.13896" result="effect1_foregroundBlur_1_9"/>
</filter>
<filter id="filter16_f_1_9" x="258.895" y="1257.67" width="652.272" height="311.243" filterUnits="userSpaceOnUse" color-interpolation-filters="sRGB">
<feFlood flood-opacity="0" result="BackgroundImageFix"/>
<feBlend mode="normal" in="SourceGraphic" in2="BackgroundImageFix" result="shape"/>
<feGaussianBlur stdDeviation="7.48635" result="effect1_foregroundBlur_1_9"/>
</filter>
<filter id="filter17_f_1_9" x="250.989" y="1253.65" width="695.307" height="354.992" filterUnits="userSpaceOnUse" color-interpolation-filters="sRGB">
<feFlood flood-opacity="0" result="BackgroundImageFix"/>
<feBlend mode="normal" in="SourceGraphic" in2="BackgroundImageFix" result="shape"/>
<feGaussianBlur stdDeviation="18.1811" result="effect1_foregroundBlur_1_9"/>
</filter>
<filter id="filter18_f_1_9" x="249.179" y="1264.91" width="780.61" height="439.58" filterUnits="userSpaceOnUse" color-interpolation-filters="sRGB">
<feFlood flood-opacity="0" result="BackgroundImageFix"/>
<feBlend mode="normal" in="SourceGraphic" in2="BackgroundImageFix" result="shape"/>
<feGaussianBlur stdDeviation="39.5707" result="effect1_foregroundBlur_1_9"/>
</filter>
<filter id="filter19_f_1_9" x="289.051" y="1281.61" width="811.422" height="551.133" filterUnits="userSpaceOnUse" color-interpolation-filters="sRGB">
<feFlood flood-opacity="0" result="BackgroundImageFix"/>
<feBlend mode="normal" in="SourceGraphic" in2="BackgroundImageFix" result="shape"/>
<feGaussianBlur stdDeviation="69.5161" result="effect1_foregroundBlur_1_9"/>
</filter>
<filter id="filter20_f_1_9" x="121.704" y="901.134" width="621.189" height="486.191" filterUnits="userSpaceOnUse" color-interpolation-filters="sRGB">
<feFlood flood-opacity="0" result="BackgroundImageFix"/>
<feBlend mode="normal" in="SourceGraphic" in2="BackgroundImageFix" result="shape"/>
<feGaussianBlur stdDeviation="3.53844" result="effect1_foregroundBlur_1_9"/>
</filter>
<filter id="filter21_f_1_9" x="102.898" y="871.374" width="656.573" height="521.576" filterUnits="userSpaceOnUse" color-interpolation-filters="sRGB">
<feFlood flood-opacity="0" result="BackgroundImageFix"/>
<feBlend mode="normal" in="SourceGraphic" in2="BackgroundImageFix" result="shape"/>
<feGaussianBlur stdDeviation="12.3845" result="effect1_foregroundBlur_1_9"/>
</filter>
<filter id="filter22_f_1_9" x="64.4536" y="801.803" width="727.355" height="594.342" filterUnits="userSpaceOnUse" color-interpolation-filters="sRGB">
<feFlood flood-opacity="0" result="BackgroundImageFix"/>
<feBlend mode="normal" in="SourceGraphic" in2="BackgroundImageFix" result="shape"/>
<feGaussianBlur stdDeviation="30.0767" result="effect1_foregroundBlur_1_9"/>
</filter>
<filter id="filter23_f_1_9" x="-15.4737" y="632.459" width="868.88" height="733.882" filterUnits="userSpaceOnUse" color-interpolation-filters="sRGB">
<feFlood flood-opacity="0" result="BackgroundImageFix"/>
<feBlend mode="normal" in="SourceGraphic" in2="BackgroundImageFix" result="shape"/>
<feGaussianBlur stdDeviation="65.4612" result="effect1_foregroundBlur_1_9"/>
</filter>
<filter id="filter24_f_1_9" x="-78.8266" y="399.098" width="970.772" height="931.057" filterUnits="userSpaceOnUse" color-interpolation-filters="sRGB">
<feFlood flood-opacity="0" result="BackgroundImageFix"/>
<feBlend mode="normal" in="SourceGraphic" in2="BackgroundImageFix" result="shape"/>
<feGaussianBlur stdDeviation="114.999" result="effect1_foregroundBlur_1_9"/>
</filter>
<filter id="filter25_f_1_9" x="147.537" y="967.366" width="323.656" height="376.225" filterUnits="userSpaceOnUse" color-interpolation-filters="sRGB">
<feFlood flood-opacity="0" result="BackgroundImageFix"/>
<feBlend mode="normal" in="SourceGraphic" in2="BackgroundImageFix" result="shape"/>
<feGaussianBlur stdDeviation="3.53844" result="effect1_foregroundBlur_1_9"/>
</filter>
<filter id="filter26_f_1_9" x="123.09" y="946.403" width="359.04" height="411.61" filterUnits="userSpaceOnUse" color-interpolation-filters="sRGB">
<feFlood flood-opacity="0" result="BackgroundImageFix"/>
<feBlend mode="normal" in="SourceGraphic" in2="BackgroundImageFix" result="shape"/>
<feGaussianBlur stdDeviation="12.3845" result="effect1_foregroundBlur_1_9"/>
</filter>
<filter id="filter27_f_1_9" x="68.6428" y="901.929" width="430.765" height="482.57" filterUnits="userSpaceOnUse" color-interpolation-filters="sRGB">
<feFlood flood-opacity="0" result="BackgroundImageFix"/>
<feBlend mode="normal" in="SourceGraphic" in2="BackgroundImageFix" result="shape"/>
<feGaussianBlur stdDeviation="30.0767" result="effect1_foregroundBlur_1_9"/>
</filter>
<filter id="filter28_f_1_9" x="-57.3882" y="804.273" width="571.346" height="623.916" filterUnits="userSpaceOnUse" color-interpolation-filters="sRGB">
<feFlood flood-opacity="0" result="BackgroundImageFix"/>
<feBlend mode="normal" in="SourceGraphic" in2="BackgroundImageFix" result="shape"/>
<feGaussianBlur stdDeviation="65.4612" result="effect1_foregroundBlur_1_9"/>
</filter>
<filter id="filter29_f_1_9" x="-225.402" y="693.706" width="756.477" height="772.008" filterUnits="userSpaceOnUse" color-interpolation-filters="sRGB">
<feFlood flood-opacity="0" result="BackgroundImageFix"/>
<feBlend mode="normal" in="SourceGraphic" in2="BackgroundImageFix" result="shape"/>
<feGaussianBlur stdDeviation="114.999" result="effect1_foregroundBlur_1_9"/>
</filter>
<filter id="filter30_f_1_9" x="375.541" y="1127.55" width="367.545" height="428.221" filterUnits="userSpaceOnUse" color-interpolation-filters="sRGB">
<feFlood flood-opacity="0" result="BackgroundImageFix"/>
<feBlend mode="normal" in="SourceGraphic" in2="BackgroundImageFix" result="shape"/>
<feGaussianBlur stdDeviation="3.53844" result="effect1_foregroundBlur_1_9"/>
</filter>
<filter id="filter31_f_1_9" x="350.114" y="1113.57" width="402.929" height="463.606" filterUnits="userSpaceOnUse" color-interpolation-filters="sRGB">
<feFlood flood-opacity="0" result="BackgroundImageFix"/>
<feBlend mode="normal" in="SourceGraphic" in2="BackgroundImageFix" result="shape"/>
<feGaussianBlur stdDeviation="12.3845" result="effect1_foregroundBlur_1_9"/>
</filter>
<filter id="filter32_f_1_9" x="292.906" y="1088.27" width="474.796" height="534.59" filterUnits="userSpaceOnUse" color-interpolation-filters="sRGB">
<feFlood flood-opacity="0" result="BackgroundImageFix"/>
<feBlend mode="normal" in="SourceGraphic" in2="BackgroundImageFix" result="shape"/>
<feGaussianBlur stdDeviation="30.0767" result="effect1_foregroundBlur_1_9"/>
</filter>
<filter id="filter33_f_1_9" x="158.859" y="1048.2" width="615.235" height="675.912" filterUnits="userSpaceOnUse" color-interpolation-filters="sRGB">
<feFlood flood-opacity="0" result="BackgroundImageFix"/>
<feBlend mode="normal" in="SourceGraphic" in2="BackgroundImageFix" result="shape"/>
<feGaussianBlur stdDeviation="65.4612" result="effect1_foregroundBlur_1_9"/>
</filter>
<filter id="filter34_f_1_9" x="-19.2831" y="1019.22" width="798.738" height="816.664" filterUnits="userSpaceOnUse" color-interpolation-filters="sRGB">
<feFlood flood-opacity="0" result="BackgroundImageFix"/>
<feBlend mode="normal" in="SourceGraphic" in2="BackgroundImageFix" result="shape"/>
<feGaussianBlur stdDeviation="114.999" result="effect1_foregroundBlur_1_9"/>
</filter>
<filter id="filter35_f_1_9" x="456.917" y="1309.91" width="280.227" height="221.137" filterUnits="userSpaceOnUse" color-interpolation-filters="sRGB">
<feFlood flood-opacity="0" result="BackgroundImageFix"/>
<feBlend mode="normal" in="SourceGraphic" in2="BackgroundImageFix" result="shape"/>
<feGaussianBlur stdDeviation="3.53844" result="effect1_foregroundBlur_1_9"/>
</filter>
<filter id="filter36_f_1_9" x="438.716" y="1297.51" width="315.612" height="256.522" filterUnits="userSpaceOnUse" color-interpolation-filters="sRGB">
<feFlood flood-opacity="0" result="BackgroundImageFix"/>
<feBlend mode="normal" in="SourceGraphic" in2="BackgroundImageFix" result="shape"/>
<feGaussianBlur stdDeviation="12.3845" result="effect1_foregroundBlur_1_9"/>
</filter>
<filter id="filter37_f_1_9" x="401.933" y="1276.23" width="386.387" height="328.165" filterUnits="userSpaceOnUse" color-interpolation-filters="sRGB">
<feFlood flood-opacity="0" result="BackgroundImageFix"/>
<feBlend mode="normal" in="SourceGraphic" in2="BackgroundImageFix" result="shape"/>
<feGaussianBlur stdDeviation="30.0767" result="effect1_foregroundBlur_1_9"/>
</filter>
<filter id="filter38_f_1_9" x="326.977" y="1249.54" width="527.918" height="468.828" filterUnits="userSpaceOnUse" color-interpolation-filters="sRGB">
<feFlood flood-opacity="0" result="BackgroundImageFix"/>
<feBlend mode="normal" in="SourceGraphic" in2="BackgroundImageFix" result="shape"/>
<feGaussianBlur stdDeviation="65.4612" result="effect1_foregroundBlur_1_9"/>
</filter>
<filter id="filter39_f_1_9" x="243.316" y="1209.75" width="683.899" height="666.515" filterUnits="userSpaceOnUse" color-interpolation-filters="sRGB">
<feFlood flood-opacity="0" result="BackgroundImageFix"/>
<feBlend mode="normal" in="SourceGraphic" in2="BackgroundImageFix" result="shape"/>
<feGaussianBlur stdDeviation="114.999" result="effect1_foregroundBlur_1_9"/>
</filter>
<linearGradient id="paint0_linear_1_9" x1="1019.85" y1="1280.45" x2="1019.85" y2="505.047" gradientUnits="userSpaceOnUse">
<stop stop-color="white"/>
<stop offset="1" stop-color="white" stop-opacity="0"/>
</linearGradient>
<linearGradient id="paint1_linear_1_9" x1="1818.87" y1="1624.53" x2="1818.87" y2="849.13" gradientUnits="userSpaceOnUse">
<stop stop-color="white"/>
<stop offset="1" stop-color="white" stop-opacity="0"/>
</linearGradient>
<linearGradient id="paint2_linear_1_9" x1="1626.44" y1="2462.92" x2="1626.44" y2="1523.86" gradientUnits="userSpaceOnUse">
<stop stop-color="white"/>
<stop offset="1" stop-color="white" stop-opacity="0"/>
</linearGradient>
<linearGradient id="paint3_linear_1_9" x1="601.611" y1="555.603" x2="601.611" y2="4.3225e-06" gradientUnits="userSpaceOnUse">
<stop stop-color="white"/>
<stop offset="1" stop-color="white" stop-opacity="0"/>
</linearGradient>
<linearGradient id="paint4_linear_1_9" x1="568.396" y1="1338.08" x2="568.396" y2="512.886" gradientUnits="userSpaceOnUse">
<stop stop-color="white"/>
<stop offset="1" stop-color="white" stop-opacity="0"/>
</linearGradient>
<linearGradient id="paint5_linear_1_9" x1="199.256" y1="1713.35" x2="199.256" y2="1202.27" gradientUnits="userSpaceOnUse">
<stop stop-color="white"/>
<stop offset="1" stop-color="white" stop-opacity="0"/>
</linearGradient>
<linearGradient id="paint6_linear_1_9" x1="683.938" y1="2392.3" x2="683.938" y2="1808.22" gradientUnits="userSpaceOnUse">
<stop stop-color="white"/>
<stop offset="1" stop-color="white" stop-opacity="0"/>
</linearGradient>
<linearGradient id="paint7_linear_1_9" x1="1012.61" y1="2092.46" x2="1012.61" y2="1730.72" gradientUnits="userSpaceOnUse">
<stop stop-color="white"/>
<stop offset="1" stop-color="white" stop-opacity="0"/>
</linearGradient>
</defs>
</svg>
