<svg width="2541" height="2244" viewBox="0 0 2541 2244" fill="none" xmlns="http://www.w3.org/2000/svg">
<g opacity="0.4">
<mask id="mask0_54_85" style="mask-type:alpha" maskUnits="userSpaceOnUse" x="853" y="518" width="1074" height="1298">
<rect x="965.273" y="518.506" width="965.079" height="1213.44" transform="rotate(5.30217 965.273 518.506)" fill="url(#paint0_linear_54_85)"/>
</mask>
<g mask="url(#mask0_54_85)">
<path d="M1724.66 1371.73C1706.49 1567.5 1533.06 1711.47 1337.3 1693.3C1141.53 1675.13 997.556 1501.7 1015.72 1305.94C1033.89 1110.17 1182.84 1229.99 1378.61 1248.15C1574.38 1266.32 1742.83 1175.96 1724.66 1371.73Z" fill="#579AFF"/>
<g filter="url(#filter0_f_54_85)">
<path d="M1724 1378.8C1709.94 1530.34 1539.84 1638.46 1344.07 1620.29C1148.3 1602.12 1001 1464.54 1015.07 1313C1029.13 1161.46 1199.23 1053.34 1395 1071.51C1590.77 1089.68 1738.07 1227.26 1724 1378.8Z" fill="#579AFF"/>
</g>
<g filter="url(#filter1_f_54_85)">
<ellipse cx="1370.84" cy="1331.77" rx="355.991" ry="275.568" transform="rotate(5.30217 1370.84 1331.77)" fill="#579AFF"/>
</g>
<g filter="url(#filter2_f_54_85)">
<ellipse cx="1374.45" cy="1292.9" rx="355.991" ry="276.751" transform="rotate(5.30217 1374.45 1292.9)" fill="#579AFF"/>
</g>
<g filter="url(#filter3_f_54_85)">
<ellipse cx="1385.27" cy="1176.32" rx="355.991" ry="275.568" transform="rotate(5.30217 1385.27 1176.32)" fill="#579AFF"/>
</g>
<g filter="url(#filter4_f_54_85)">
<ellipse cx="1399.92" cy="1018.52" rx="299.222" ry="275.568" transform="rotate(5.30217 1399.92 1018.52)" fill="#579AFF"/>
</g>
</g>
<mask id="mask1_54_85" style="mask-type:alpha" maskUnits="userSpaceOnUse" x="952" y="618" width="1513" height="1398">
<rect x="2044.73" y="618.688" width="965.079" height="1213.44" transform="rotate(64.2136 2044.73 618.688)" fill="url(#paint1_linear_54_85)"/>
</mask>
<g mask="url(#mask1_54_85)">
<path d="M1706.18 1709.58C1529.15 1795.11 1316.3 1720.93 1230.77 1543.9C1145.25 1366.87 1219.42 1154.02 1396.45 1068.49C1573.49 982.966 1547.79 1172.39 1633.32 1349.42C1718.84 1526.45 1883.21 1624.05 1706.18 1709.58Z" fill="#FF4DED"/>
<g filter="url(#filter5_f_54_85)">
<path d="M1699.79 1712.67C1562.75 1778.87 1382.33 1689.03 1296.8 1512C1211.27 1334.97 1253.03 1137.79 1390.07 1071.58C1527.1 1005.38 1707.53 1095.22 1793.05 1272.25C1878.58 1449.28 1836.83 1646.46 1699.79 1712.67Z" fill="#FF4DED"/>
</g>
<g filter="url(#filter6_f_54_85)">
<ellipse cx="1557.71" cy="1385.95" rx="355.991" ry="275.568" transform="rotate(64.2136 1557.71 1385.95)" fill="#FF4DED"/>
</g>
<g filter="url(#filter7_f_54_85)">
<ellipse cx="1592.85" cy="1368.97" rx="355.991" ry="276.75" transform="rotate(64.2136 1592.85 1368.97)" fill="#FF4DED"/>
</g>
<g filter="url(#filter8_f_54_85)">
<ellipse cx="1698.28" cy="1318.04" rx="355.991" ry="275.568" transform="rotate(64.2136 1698.28 1318.04)" fill="#FF4DED"/>
</g>
<g filter="url(#filter9_f_54_85)">
<ellipse cx="1840.98" cy="1249.09" rx="299.222" ry="275.568" transform="rotate(64.2136 1840.98 1249.09)" fill="#FF4DED"/>
</g>
</g>
</g>
<g opacity="0.25">
<mask id="mask2_54_85" style="mask-type:alpha" maskUnits="userSpaceOnUse" x="974" y="1224" width="1501" height="533">
<rect x="2474.61" y="1363.11" width="394.765" height="1469.55" transform="rotate(95.4175 2474.61 1363.11)" fill="url(#paint2_linear_54_85)"/>
</mask>
<g mask="url(#mask2_54_85)">
<path d="M1502.68 1614.02C1265.64 1591.54 1079.64 1508.41 1087.23 1428.35C1094.83 1348.29 1293.14 1301.61 1530.18 1324.09C1767.22 1346.57 1633.82 1399.4 1626.23 1479.47C1618.63 1559.53 1739.72 1636.5 1502.68 1614.02Z" fill="#57AEFF"/>
<g filter="url(#filter10_f_54_85)">
<path d="M1494.12 1613.21C1310.63 1595.81 1168.04 1516.8 1175.64 1436.73C1183.23 1356.67 1338.13 1305.87 1521.62 1323.27C1705.11 1340.68 1847.7 1419.69 1840.11 1499.75C1832.52 1579.81 1677.61 1630.61 1494.12 1613.21Z" fill="#57AEFF"/>
</g>
<g filter="url(#filter11_f_54_85)">
<ellipse cx="1524.98" cy="1469.86" rx="145.618" ry="333.728" transform="rotate(95.4175 1524.98 1469.86)" fill="#57AEFF"/>
</g>
<g filter="url(#filter12_f_54_85)">
<ellipse cx="1572.04" cy="1474.33" rx="145.618" ry="335.16" transform="rotate(95.4175 1572.04 1474.33)" fill="#57AEFF"/>
</g>
<g filter="url(#filter13_f_54_85)">
<ellipse cx="1713.2" cy="1487.71" rx="145.618" ry="333.728" transform="rotate(95.4175 1713.2 1487.71)" fill="#57AEFF"/>
</g>
<g filter="url(#filter14_f_54_85)">
<ellipse cx="1904.27" cy="1505.83" rx="122.397" ry="333.728" transform="rotate(95.4175 1904.27 1505.83)" fill="#57AEFF"/>
</g>
</g>
<mask id="mask3_54_85" style="mask-type:alpha" maskUnits="userSpaceOnUse" x="702" y="1309" width="1731" height="605">
<rect width="1021.29" height="869.477" transform="matrix(-0.994335 0.106288 -0.822244 -0.569136 2432.74 1804.58)" fill="url(#paint3_linear_54_85)"/>
</mask>
<g mask="url(#mask3_54_85)">
<path d="M1094.55 1580.58C978.65 1500.41 1052.43 1417.51 1259.35 1395.42C1466.26 1373.33 1727.95 1420.41 1843.85 1500.58C1959.75 1580.76 1729.79 1555.63 1522.88 1577.72C1315.97 1599.81 1210.44 1660.75 1094.55 1580.58Z" fill="#4A46FF"/>
<g filter="url(#filter15_f_54_85)">
<path d="M1090.36 1577.69C1000.65 1515.63 1095.66 1447.41 1302.57 1425.32C1509.49 1403.23 1749.95 1435.63 1839.67 1497.69C1929.38 1559.75 1834.37 1627.97 1627.45 1650.06C1420.54 1672.15 1180.08 1639.75 1090.36 1577.69Z" fill="#4A46FF"/>
</g>
<g filter="url(#filter16_f_54_85)">
<ellipse cx="376.724" cy="197.454" rx="376.724" ry="197.454" transform="matrix(-0.994499 0.106175 -0.822675 -0.569089 2010.48 1615.85)" fill="#4A46FF"/>
</g>
<g filter="url(#filter17_f_54_85)">
<ellipse cx="376.724" cy="198.302" rx="376.724" ry="198.302" transform="matrix(-0.994499 0.106175 -0.822675 -0.569089 2034.18 1632.24)" fill="#4A46FF"/>
</g>
<g filter="url(#filter18_f_54_85)">
<ellipse cx="376.724" cy="197.454" rx="376.724" ry="197.454" transform="matrix(-0.994499 0.106175 -0.822675 -0.569089 2102.5 1679.51)" fill="#4A46FF"/>
</g>
<g filter="url(#filter19_f_54_85)">
<ellipse cx="316.649" cy="197.454" rx="316.649" ry="197.454" transform="matrix(-0.994499 0.106175 -0.822675 -0.569089 2136.18 1750.51)" fill="#4A46FF"/>
</g>
</g>
</g>
<g opacity="0.4">
<mask id="mask4_54_85" style="mask-type:alpha" maskUnits="userSpaceOnUse" x="389" y="310" width="1455" height="1593">
<rect x="389.976" y="715.658" width="1027.05" height="1291.36" transform="rotate(-23.2549 389.976 715.658)" fill="url(#paint4_linear_54_85)"/>
</mask>
<g mask="url(#mask4_54_85)">
<path d="M1533.86 1126.88C1616.47 1319.11 1527.6 1541.91 1335.37 1624.52C1143.14 1707.13 920.332 1618.27 837.722 1426.03C755.112 1233.8 955.294 1270.02 1147.53 1187.41C1339.76 1104.8 1451.25 934.642 1533.86 1126.88Z" fill="#2C67FF"/>
<g filter="url(#filter20_f_54_85)">
<path d="M1536.85 1133.81C1600.8 1282.62 1496.8 1470.21 1304.56 1552.82C1112.33 1635.43 904.655 1581.77 840.708 1432.97C776.761 1284.16 880.758 1096.56 1072.99 1013.95C1265.23 931.342 1472.9 985.004 1536.85 1133.81Z" fill="#2C67FF"/>
</g>
<g filter="url(#filter21_f_54_85)">
<ellipse cx="1182.81" cy="1269.51" rx="378.849" ry="293.262" transform="rotate(-23.2549 1182.81 1269.51)" fill="#2C67FF"/>
</g>
<g filter="url(#filter22_f_54_85)">
<ellipse cx="1166.42" cy="1231.36" rx="378.849" ry="294.52" transform="rotate(-23.2549 1166.42 1231.36)" fill="#2C67FF"/>
</g>
<g filter="url(#filter23_f_54_85)">
<ellipse cx="1117.22" cy="1116.87" rx="378.849" ry="293.262" transform="rotate(-23.2549 1117.22 1116.87)" fill="#2C67FF"/>
</g>
<g filter="url(#filter24_f_54_85)">
<ellipse cx="1050.63" cy="961.917" rx="318.435" ry="293.262" transform="rotate(-23.2549 1050.63 961.917)" fill="#2C67FF"/>
</g>
</g>
<mask id="mask5_54_85" style="mask-type:alpha" maskUnits="userSpaceOnUse" x="490" y="955" width="880" height="741">
<rect x="490.832" y="1586.16" width="636.095" height="799.795" transform="rotate(-82.1664 490.832 1586.16)" fill="url(#paint5_linear_54_85)"/>
</mask>
<g mask="url(#mask5_54_85)">
<path d="M1074.76 1110.96C1203.13 1128.62 1292.89 1247.01 1275.22 1375.39C1257.56 1503.77 1139.17 1593.52 1010.8 1575.86C882.418 1558.2 965.651 1463.61 983.313 1335.23C1000.98 1206.85 946.379 1093.3 1074.76 1110.96Z" fill="#094EFF"/>
<g filter="url(#filter25_f_54_85)">
<path d="M1079.39 1111.6C1178.77 1125.27 1245.01 1240.43 1227.35 1368.8C1209.68 1497.18 1114.81 1590.17 1015.43 1576.5C916.055 1562.83 849.814 1447.67 867.476 1319.29C885.138 1190.92 980.016 1097.93 1079.39 1111.6Z" fill="#094EFF"/>
</g>
<g filter="url(#filter26_f_54_85)">
<ellipse cx="1038.15" cy="1342.77" rx="234.638" ry="181.63" transform="rotate(-82.1664 1038.15 1342.77)" fill="#094EFF"/>
</g>
<g filter="url(#filter27_f_54_85)">
<ellipse cx="1012.66" cy="1339.27" rx="234.638" ry="182.409" transform="rotate(-82.1664 1012.66 1339.27)" fill="#094EFF"/>
</g>
<g filter="url(#filter28_f_54_85)">
<ellipse cx="936.206" cy="1328.75" rx="234.638" ry="181.63" transform="rotate(-82.1664 936.206 1328.75)" fill="#094EFF"/>
</g>
<g filter="url(#filter29_f_54_85)">
<ellipse cx="832.725" cy="1314.51" rx="197.22" ry="181.63" transform="rotate(-82.1664 832.725 1314.51)" fill="#094EFF"/>
</g>
</g>
</g>
<g opacity="0.4">
<mask id="mask6_54_85" style="mask-type:alpha" maskUnits="userSpaceOnUse" x="733" y="981" width="1165" height="1158">
<rect x="1235.12" y="2138.32" width="726.957" height="914.042" transform="rotate(-133.6 1235.12 2138.32)" fill="url(#paint6_linear_54_85)"/>
</mask>
<g mask="url(#mask6_54_85)">
<path d="M1226.53 1277.98C1333.78 1175.85 1503.52 1180 1605.65 1287.25C1707.78 1394.5 1703.63 1564.23 1596.38 1666.36C1489.13 1768.49 1463.91 1626.73 1361.78 1519.48C1259.65 1412.23 1119.28 1380.11 1226.53 1277.98Z" fill="#0066FF"/>
<g filter="url(#filter30_f_54_85)">
<path d="M1230.4 1274.29C1313.42 1195.23 1463.51 1218.09 1565.64 1325.34C1667.78 1432.58 1683.27 1583.61 1600.25 1662.67C1517.23 1741.73 1367.13 1718.88 1265 1611.63C1162.87 1504.38 1147.38 1353.35 1230.4 1274.29Z" fill="#0066FF"/>
</g>
<g filter="url(#filter31_f_54_85)">
<ellipse cx="1407.58" cy="1475.86" rx="268.154" ry="207.575" transform="rotate(-133.6 1407.58 1475.86)" fill="#0066FF"/>
</g>
<g filter="url(#filter32_f_54_85)">
<ellipse cx="1386.3" cy="1496.13" rx="268.154" ry="208.466" transform="rotate(-133.6 1386.3 1496.13)" fill="#0066FF"/>
</g>
<g filter="url(#filter33_f_54_85)">
<ellipse cx="1322.42" cy="1556.95" rx="268.154" ry="207.575" transform="rotate(-133.6 1322.42 1556.95)" fill="#0066FF"/>
</g>
<g filter="url(#filter34_f_54_85)">
<ellipse cx="1235.97" cy="1639.28" rx="225.392" ry="207.575" transform="rotate(-133.6 1235.97 1639.28)" fill="#0066FF"/>
</g>
</g>
<mask id="mask7_54_85" style="mask-type:alpha" maskUnits="userSpaceOnUse" x="1225" y="1304" width="564" height="651">
<rect x="1788.01" y="1857.17" width="450.236" height="566.106" transform="rotate(167.489 1788.01 1857.17)" fill="url(#paint7_linear_54_85)"/>
</mask>
<g mask="url(#mask7_54_85)">
<path d="M1328.95 1586.59C1309.08 1497.04 1365.57 1408.34 1455.11 1388.47C1544.66 1368.6 1633.35 1425.08 1653.22 1514.63C1673.09 1604.18 1589.84 1572.21 1500.29 1592.09C1410.75 1611.96 1348.82 1676.13 1328.95 1586.59Z" fill="#096BFF"/>
<g filter="url(#filter35_f_54_85)">
<path d="M1328.24 1583.35C1312.85 1514.04 1372.98 1441.74 1462.52 1421.87C1552.07 1402 1637.13 1442.08 1652.51 1511.4C1667.89 1580.71 1607.77 1653.01 1518.22 1672.88C1428.68 1692.75 1343.62 1652.67 1328.24 1583.35Z" fill="#096BFF"/>
</g>
<g filter="url(#filter36_f_54_85)">
<ellipse cx="1491.8" cy="1553.84" rx="166.08" ry="128.56" transform="rotate(167.489 1491.8 1553.84)" fill="#096BFF"/>
</g>
<g filter="url(#filter37_f_54_85)">
<ellipse cx="1495.75" cy="1571.62" rx="166.08" ry="129.112" transform="rotate(167.489 1495.75 1571.62)" fill="#096BFF"/>
</g>
<g filter="url(#filter38_f_54_85)">
<ellipse cx="1507.58" cy="1624.94" rx="166.08" ry="128.56" transform="rotate(167.489 1507.58 1624.94)" fill="#096BFF"/>
</g>
<g filter="url(#filter39_f_54_85)">
<ellipse cx="1523.6" cy="1697.12" rx="139.595" ry="128.56" transform="rotate(167.489 1523.6 1697.12)" fill="#096BFF"/>
</g>
</g>
</g>
<defs>
<filter id="filter0_f_54_85" x="1008.03" y="1063.41" width="723.012" height="564.98" filterUnits="userSpaceOnUse" color-interpolation-filters="sRGB">
<feFlood flood-opacity="0" result="BackgroundImageFix"/>
<feBlend mode="normal" in="SourceGraphic" in2="BackgroundImageFix" result="shape"/>
<feGaussianBlur stdDeviation="3.0545" result="effect1_foregroundBlur_54_85"/>
</filter>
<filter id="filter1_f_54_85" x="994.066" y="1034.01" width="753.557" height="595.525" filterUnits="userSpaceOnUse" color-interpolation-filters="sRGB">
<feFlood flood-opacity="0" result="BackgroundImageFix"/>
<feBlend mode="normal" in="SourceGraphic" in2="BackgroundImageFix" result="shape"/>
<feGaussianBlur stdDeviation="10.6908" result="effect1_foregroundBlur_54_85"/>
</filter>
<filter id="filter2_f_54_85" x="967.122" y="963.427" width="814.662" height="658.954" filterUnits="userSpaceOnUse" color-interpolation-filters="sRGB">
<feFlood flood-opacity="0" result="BackgroundImageFix"/>
<feBlend mode="normal" in="SourceGraphic" in2="BackgroundImageFix" result="shape"/>
<feGaussianBlur stdDeviation="25.9633" result="effect1_foregroundBlur_54_85"/>
</filter>
<filter id="filter3_f_54_85" x="916.859" y="786.924" width="936.827" height="778.795" filterUnits="userSpaceOnUse" color-interpolation-filters="sRGB">
<feFlood flood-opacity="0" result="BackgroundImageFix"/>
<feBlend mode="normal" in="SourceGraphic" in2="BackgroundImageFix" result="shape"/>
<feGaussianBlur stdDeviation="56.5083" result="effect1_foregroundBlur_54_85"/>
</filter>
<filter id="filter4_f_54_85" x="902.329" y="544.178" width="995.175" height="948.684" filterUnits="userSpaceOnUse" color-interpolation-filters="sRGB">
<feFlood flood-opacity="0" result="BackgroundImageFix"/>
<feBlend mode="normal" in="SourceGraphic" in2="BackgroundImageFix" result="shape"/>
<feGaussianBlur stdDeviation="99.2713" result="effect1_foregroundBlur_54_85"/>
</filter>
<filter id="filter5_f_54_85" x="1246.29" y="1043.7" width="597.274" height="696.853" filterUnits="userSpaceOnUse" color-interpolation-filters="sRGB">
<feFlood flood-opacity="0" result="BackgroundImageFix"/>
<feBlend mode="normal" in="SourceGraphic" in2="BackgroundImageFix" result="shape"/>
<feGaussianBlur stdDeviation="3.0545" result="effect1_foregroundBlur_54_85"/>
</filter>
<filter id="filter6_f_54_85" x="1243.8" y="1022.25" width="627.819" height="727.398" filterUnits="userSpaceOnUse" color-interpolation-filters="sRGB">
<feFlood flood-opacity="0" result="BackgroundImageFix"/>
<feBlend mode="normal" in="SourceGraphic" in2="BackgroundImageFix" result="shape"/>
<feGaussianBlur stdDeviation="10.6908" result="effect1_foregroundBlur_54_85"/>
</filter>
<filter id="filter7_f_54_85" x="1247.49" y="974.548" width="690.718" height="788.849" filterUnits="userSpaceOnUse" color-interpolation-filters="sRGB">
<feFlood flood-opacity="0" result="BackgroundImageFix"/>
<feBlend mode="normal" in="SourceGraphic" in2="BackgroundImageFix" result="shape"/>
<feGaussianBlur stdDeviation="25.9633" result="effect1_foregroundBlur_54_85"/>
</filter>
<filter id="filter8_f_54_85" x="1292.73" y="862.703" width="811.089" height="910.668" filterUnits="userSpaceOnUse" color-interpolation-filters="sRGB">
<feFlood flood-opacity="0" result="BackgroundImageFix"/>
<feBlend mode="normal" in="SourceGraphic" in2="BackgroundImageFix" result="shape"/>
<feGaussianBlur stdDeviation="56.5083" result="effect1_foregroundBlur_54_85"/>
</filter>
<filter id="filter9_f_54_85" x="1362.18" y="755.587" width="957.594" height="987.014" filterUnits="userSpaceOnUse" color-interpolation-filters="sRGB">
<feFlood flood-opacity="0" result="BackgroundImageFix"/>
<feBlend mode="normal" in="SourceGraphic" in2="BackgroundImageFix" result="shape"/>
<feGaussianBlur stdDeviation="99.2713" result="effect1_foregroundBlur_54_85"/>
</filter>
<filter id="filter10_f_54_85" x="1171.07" y="1315.58" width="673.609" height="305.322" filterUnits="userSpaceOnUse" color-interpolation-filters="sRGB">
<feFlood flood-opacity="0" result="BackgroundImageFix"/>
<feBlend mode="normal" in="SourceGraphic" in2="BackgroundImageFix" result="shape"/>
<feGaussianBlur stdDeviation="2.13896" result="effect1_foregroundBlur_54_85"/>
</filter>
<filter id="filter11_f_54_85" x="1177.48" y="1306.51" width="694.999" height="326.712" filterUnits="userSpaceOnUse" color-interpolation-filters="sRGB">
<feFlood flood-opacity="0" result="BackgroundImageFix"/>
<feBlend mode="normal" in="SourceGraphic" in2="BackgroundImageFix" result="shape"/>
<feGaussianBlur stdDeviation="7.48635" result="effect1_foregroundBlur_54_85"/>
</filter>
<filter id="filter12_f_54_85" x="1201.73" y="1289.55" width="740.627" height="369.549" filterUnits="userSpaceOnUse" color-interpolation-filters="sRGB">
<feFlood flood-opacity="0" result="BackgroundImageFix"/>
<feBlend mode="normal" in="SourceGraphic" in2="BackgroundImageFix" result="shape"/>
<feGaussianBlur stdDeviation="18.1811" result="effect1_foregroundBlur_54_85"/>
</filter>
<filter id="filter13_f_54_85" x="1301.54" y="1260.19" width="823.336" height="455.049" filterUnits="userSpaceOnUse" color-interpolation-filters="sRGB">
<feFlood flood-opacity="0" result="BackgroundImageFix"/>
<feBlend mode="normal" in="SourceGraphic" in2="BackgroundImageFix" result="shape"/>
<feGaussianBlur stdDeviation="39.5707" result="effect1_foregroundBlur_54_85"/>
</filter>
<filter id="filter14_f_54_85" x="1432.8" y="1240.91" width="942.948" height="529.84" filterUnits="userSpaceOnUse" color-interpolation-filters="sRGB">
<feFlood flood-opacity="0" result="BackgroundImageFix"/>
<feBlend mode="normal" in="SourceGraphic" in2="BackgroundImageFix" result="shape"/>
<feGaussianBlur stdDeviation="69.5161" result="effect1_foregroundBlur_54_85"/>
</filter>
<filter id="filter15_f_54_85" x="1052.28" y="1414.1" width="825.467" height="247.173" filterUnits="userSpaceOnUse" color-interpolation-filters="sRGB">
<feFlood flood-opacity="0" result="BackgroundImageFix"/>
<feBlend mode="normal" in="SourceGraphic" in2="BackgroundImageFix" result="shape"/>
<feGaussianBlur stdDeviation="2.13896" result="effect1_foregroundBlur_54_85"/>
</filter>
<filter id="filter16_f_54_85" x="1049.95" y="1409.2" width="846.857" height="268.562" filterUnits="userSpaceOnUse" color-interpolation-filters="sRGB">
<feFlood flood-opacity="0" result="BackgroundImageFix"/>
<feBlend mode="normal" in="SourceGraphic" in2="BackgroundImageFix" result="shape"/>
<feGaussianBlur stdDeviation="7.48635" result="effect1_foregroundBlur_54_85"/>
</filter>
<filter id="filter17_f_54_85" x="1051.29" y="1403.27" width="890.191" height="312.25" filterUnits="userSpaceOnUse" color-interpolation-filters="sRGB">
<feFlood flood-opacity="0" result="BackgroundImageFix"/>
<feBlend mode="normal" in="SourceGraphic" in2="BackgroundImageFix" result="shape"/>
<feGaussianBlur stdDeviation="18.1811" result="effect1_foregroundBlur_54_85"/>
</filter>
<filter id="filter18_f_54_85" x="1077.81" y="1408.69" width="975.194" height="396.899" filterUnits="userSpaceOnUse" color-interpolation-filters="sRGB">
<feFlood flood-opacity="0" result="BackgroundImageFix"/>
<feBlend mode="normal" in="SourceGraphic" in2="BackgroundImageFix" result="shape"/>
<feGaussianBlur stdDeviation="39.5707" result="effect1_foregroundBlur_54_85"/>
</filter>
<filter id="filter19_f_54_85" x="1165.39" y="1415.41" width="986.883" height="512.708" filterUnits="userSpaceOnUse" color-interpolation-filters="sRGB">
<feFlood flood-opacity="0" result="BackgroundImageFix"/>
<feBlend mode="normal" in="SourceGraphic" in2="BackgroundImageFix" result="shape"/>
<feGaussianBlur stdDeviation="69.5161" result="effect1_foregroundBlur_54_85"/>
</filter>
<filter id="filter20_f_54_85" x="814.778" y="968.083" width="748" height="630.609" filterUnits="userSpaceOnUse" color-interpolation-filters="sRGB">
<feFlood flood-opacity="0" result="BackgroundImageFix"/>
<feBlend mode="normal" in="SourceGraphic" in2="BackgroundImageFix" result="shape"/>
<feGaussianBlur stdDeviation="3.53844" result="effect1_foregroundBlur_54_85"/>
</filter>
<filter id="filter21_f_54_85" x="791.121" y="936.518" width="783.384" height="665.994" filterUnits="userSpaceOnUse" color-interpolation-filters="sRGB">
<feFlood flood-opacity="0" result="BackgroundImageFix"/>
<feBlend mode="normal" in="SourceGraphic" in2="BackgroundImageFix" result="shape"/>
<feGaussianBlur stdDeviation="12.3845" result="effect1_foregroundBlur_54_85"/>
</filter>
<filter id="filter22_f_54_85" x="739.183" y="861.962" width="854.467" height="738.787" filterUnits="userSpaceOnUse" color-interpolation-filters="sRGB">
<feFlood flood-opacity="0" result="BackgroundImageFix"/>
<feBlend mode="normal" in="SourceGraphic" in2="BackgroundImageFix" result="shape"/>
<feGaussianBlur stdDeviation="30.0767" result="effect1_foregroundBlur_54_85"/>
</filter>
<filter id="filter23_f_54_85" x="619.373" y="677.721" width="995.69" height="878.3" filterUnits="userSpaceOnUse" color-interpolation-filters="sRGB">
<feFlood flood-opacity="0" result="BackgroundImageFix"/>
<feBlend mode="normal" in="SourceGraphic" in2="BackgroundImageFix" result="shape"/>
<feGaussianBlur stdDeviation="65.4612" result="effect1_foregroundBlur_54_85"/>
</filter>
<filter id="filter24_f_54_85" x="505.902" y="434.521" width="1089.45" height="1054.79" filterUnits="userSpaceOnUse" color-interpolation-filters="sRGB">
<feFlood flood-opacity="0" result="BackgroundImageFix"/>
<feBlend mode="normal" in="SourceGraphic" in2="BackgroundImageFix" result="shape"/>
<feGaussianBlur stdDeviation="114.999" result="effect1_foregroundBlur_54_85"/>
</filter>
<filter id="filter25_f_54_85" x="857.548" y="1103.19" width="379.725" height="481.718" filterUnits="userSpaceOnUse" color-interpolation-filters="sRGB">
<feFlood flood-opacity="0" result="BackgroundImageFix"/>
<feBlend mode="normal" in="SourceGraphic" in2="BackgroundImageFix" result="shape"/>
<feGaussianBlur stdDeviation="3.53844" result="effect1_foregroundBlur_54_85"/>
</filter>
<filter id="filter26_f_54_85" x="830.591" y="1084.22" width="415.11" height="517.102" filterUnits="userSpaceOnUse" color-interpolation-filters="sRGB">
<feFlood flood-opacity="0" result="BackgroundImageFix"/>
<feBlend mode="normal" in="SourceGraphic" in2="BackgroundImageFix" result="shape"/>
<feGaussianBlur stdDeviation="12.3845" result="effect1_foregroundBlur_54_85"/>
</filter>
<filter id="filter27_f_54_85" x="768.957" y="1045.32" width="487.399" height="587.894" filterUnits="userSpaceOnUse" color-interpolation-filters="sRGB">
<feFlood flood-opacity="0" result="BackgroundImageFix"/>
<feBlend mode="normal" in="SourceGraphic" in2="BackgroundImageFix" result="shape"/>
<feGaussianBlur stdDeviation="30.0767" result="effect1_foregroundBlur_54_85"/>
</filter>
<filter id="filter28_f_54_85" x="622.498" y="964.044" width="627.416" height="729.409" filterUnits="userSpaceOnUse" color-interpolation-filters="sRGB">
<feFlood flood-opacity="0" result="BackgroundImageFix"/>
<feBlend mode="normal" in="SourceGraphic" in2="BackgroundImageFix" result="shape"/>
<feGaussianBlur stdDeviation="65.4612" result="effect1_foregroundBlur_54_85"/>
</filter>
<filter id="filter29_f_54_85" x="420.77" y="887.55" width="823.91" height="853.924" filterUnits="userSpaceOnUse" color-interpolation-filters="sRGB">
<feFlood flood-opacity="0" result="BackgroundImageFix"/>
<feBlend mode="normal" in="SourceGraphic" in2="BackgroundImageFix" result="shape"/>
<feGaussianBlur stdDeviation="114.999" result="effect1_foregroundBlur_54_85"/>
</filter>
<filter id="filter30_f_54_85" x="1169.93" y="1220.14" width="490.795" height="496.683" filterUnits="userSpaceOnUse" color-interpolation-filters="sRGB">
<feFlood flood-opacity="0" result="BackgroundImageFix"/>
<feBlend mode="normal" in="SourceGraphic" in2="BackgroundImageFix" result="shape"/>
<feGaussianBlur stdDeviation="3.53844" result="effect1_foregroundBlur_54_85"/>
</filter>
<filter id="filter31_f_54_85" x="1144.5" y="1209.82" width="526.179" height="532.067" filterUnits="userSpaceOnUse" color-interpolation-filters="sRGB">
<feFlood flood-opacity="0" result="BackgroundImageFix"/>
<feBlend mode="normal" in="SourceGraphic" in2="BackgroundImageFix" result="shape"/>
<feGaussianBlur stdDeviation="12.3845" result="effect1_foregroundBlur_54_85"/>
</filter>
<filter id="filter32_f_54_85" x="1087.41" y="1194.34" width="597.762" height="603.566" filterUnits="userSpaceOnUse" color-interpolation-filters="sRGB">
<feFlood flood-opacity="0" result="BackgroundImageFix"/>
<feBlend mode="normal" in="SourceGraphic" in2="BackgroundImageFix" result="shape"/>
<feGaussianBlur stdDeviation="30.0767" result="effect1_foregroundBlur_54_85"/>
</filter>
<filter id="filter33_f_54_85" x="953.181" y="1184.76" width="738.486" height="744.374" filterUnits="userSpaceOnUse" color-interpolation-filters="sRGB">
<feFlood flood-opacity="0" result="BackgroundImageFix"/>
<feBlend mode="normal" in="SourceGraphic" in2="BackgroundImageFix" result="shape"/>
<feGaussianBlur stdDeviation="65.4612" result="effect1_foregroundBlur_54_85"/>
</filter>
<filter id="filter34_f_54_85" x="789.744" y="1192.17" width="892.461" height="894.206" filterUnits="userSpaceOnUse" color-interpolation-filters="sRGB">
<feFlood flood-opacity="0" result="BackgroundImageFix"/>
<feBlend mode="normal" in="SourceGraphic" in2="BackgroundImageFix" result="shape"/>
<feGaussianBlur stdDeviation="114.999" result="effect1_foregroundBlur_54_85"/>
</filter>
<filter id="filter35_f_54_85" x="1318.76" y="1409.7" width="343.228" height="275.346" filterUnits="userSpaceOnUse" color-interpolation-filters="sRGB">
<feFlood flood-opacity="0" result="BackgroundImageFix"/>
<feBlend mode="normal" in="SourceGraphic" in2="BackgroundImageFix" result="shape"/>
<feGaussianBlur stdDeviation="3.53844" result="effect1_foregroundBlur_54_85"/>
</filter>
<filter id="filter36_f_54_85" x="1302.5" y="1398.47" width="378.613" height="310.73" filterUnits="userSpaceOnUse" color-interpolation-filters="sRGB">
<feFlood flood-opacity="0" result="BackgroundImageFix"/>
<feBlend mode="normal" in="SourceGraphic" in2="BackgroundImageFix" result="shape"/>
<feGaussianBlur stdDeviation="12.3845" result="effect1_foregroundBlur_54_85"/>
</filter>
<filter id="filter37_f_54_85" x="1271.04" y="1380.35" width="449.422" height="382.535" filterUnits="userSpaceOnUse" color-interpolation-filters="sRGB">
<feFlood flood-opacity="0" result="BackgroundImageFix"/>
<feBlend mode="normal" in="SourceGraphic" in2="BackgroundImageFix" result="shape"/>
<feGaussianBlur stdDeviation="30.0767" result="effect1_foregroundBlur_54_85"/>
</filter>
<filter id="filter38_f_54_85" x="1212.12" y="1363.42" width="590.919" height="523.036" filterUnits="userSpaceOnUse" color-interpolation-filters="sRGB">
<feFlood flood-opacity="0" result="BackgroundImageFix"/>
<feBlend mode="normal" in="SourceGraphic" in2="BackgroundImageFix" result="shape"/>
<feGaussianBlur stdDeviation="65.4612" result="effect1_foregroundBlur_54_85"/>
</filter>
<filter id="filter39_f_54_85" x="1154.48" y="1337.99" width="738.246" height="718.255" filterUnits="userSpaceOnUse" color-interpolation-filters="sRGB">
<feFlood flood-opacity="0" result="BackgroundImageFix"/>
<feBlend mode="normal" in="SourceGraphic" in2="BackgroundImageFix" result="shape"/>
<feGaussianBlur stdDeviation="114.999" result="effect1_foregroundBlur_54_85"/>
</filter>
<linearGradient id="paint0_linear_54_85" x1="1673.71" y1="1484.77" x2="1673.71" y2="518.506" gradientUnits="userSpaceOnUse">
<stop stop-color="white"/>
<stop offset="1" stop-color="white" stop-opacity="0"/>
</linearGradient>
<linearGradient id="paint1_linear_54_85" x1="2753.17" y1="1584.95" x2="2753.17" y2="618.688" gradientUnits="userSpaceOnUse">
<stop stop-color="white"/>
<stop offset="1" stop-color="white" stop-opacity="0"/>
</linearGradient>
<linearGradient id="paint2_linear_54_85" x1="2764.39" y1="2533.31" x2="2764.39" y2="1363.11" gradientUnits="userSpaceOnUse">
<stop stop-color="white"/>
<stop offset="1" stop-color="white" stop-opacity="0"/>
</linearGradient>
<linearGradient id="paint3_linear_54_85" x1="749.694" y1="692.361" x2="749.694" y2="5.38646e-06" gradientUnits="userSpaceOnUse">
<stop stop-color="white"/>
<stop offset="1" stop-color="white" stop-opacity="0"/>
</linearGradient>
<linearGradient id="paint4_linear_54_85" x1="1143.9" y1="1743.96" x2="1143.9" y2="715.658" gradientUnits="userSpaceOnUse">
<stop stop-color="white"/>
<stop offset="1" stop-color="white" stop-opacity="0"/>
</linearGradient>
<linearGradient id="paint5_linear_54_85" x1="957.769" y1="2223.03" x2="957.769" y2="1586.16" gradientUnits="userSpaceOnUse">
<stop stop-color="white"/>
<stop offset="1" stop-color="white" stop-opacity="0"/>
</linearGradient>
<linearGradient id="paint6_linear_54_85" x1="1768.76" y1="2866.17" x2="1768.76" y2="2138.32" gradientUnits="userSpaceOnUse">
<stop stop-color="white"/>
<stop offset="1" stop-color="white" stop-opacity="0"/>
</linearGradient>
<linearGradient id="paint7_linear_54_85" x1="2118.52" y1="2307.96" x2="2118.52" y2="1857.17" gradientUnits="userSpaceOnUse">
<stop stop-color="white"/>
<stop offset="1" stop-color="white" stop-opacity="0"/>
</linearGradient>
</defs>
</svg>
