<svg width="1440" height="1553" viewBox="0 0 1440 1553" fill="none" xmlns="http://www.w3.org/2000/svg">
<g opacity="0.4">
<mask id="mask0_0_13" style="mask-type:alpha" maskUnits="userSpaceOnUse" x="210" y="-173" width="1074" height="1298">
<rect x="322.273" y="-172.493" width="965.079" height="1213.44" transform="rotate(5.30217 322.273 -172.493)" fill="url(#paint0_linear_0_13)"/>
</mask>
<g mask="url(#mask0_0_13)">
<path d="M1081.66 680.729C1063.49 876.496 890.063 1020.47 694.296 1002.3C498.529 984.132 354.556 810.703 372.725 614.936C390.893 419.169 539.841 538.986 735.608 557.155C931.375 575.323 1099.83 484.962 1081.66 680.729Z" fill="#579AFF"/>
<g filter="url(#filter0_f_0_13)">
<path d="M1081 687.797C1066.94 839.338 896.837 947.457 701.07 929.289C505.303 911.121 358.003 773.545 372.067 622.004C386.13 470.463 556.232 362.344 751.999 380.512C947.766 398.68 1095.07 536.256 1081 687.797Z" fill="#579AFF"/>
</g>
<g filter="url(#filter1_f_0_13)">
<ellipse cx="727.845" cy="640.772" rx="355.991" ry="275.568" transform="rotate(5.30217 727.845 640.772)" fill="#579AFF"/>
</g>
<g filter="url(#filter2_f_0_13)">
<ellipse cx="731.453" cy="601.905" rx="355.991" ry="276.751" transform="rotate(5.30217 731.453 601.905)" fill="#579AFF"/>
</g>
<g filter="url(#filter3_f_0_13)">
<ellipse cx="742.272" cy="485.322" rx="355.991" ry="275.568" transform="rotate(5.30217 742.272 485.322)" fill="#579AFF"/>
</g>
<g filter="url(#filter4_f_0_13)">
<ellipse cx="756.917" cy="327.52" rx="299.222" ry="275.568" transform="rotate(5.30217 756.917 327.52)" fill="#579AFF"/>
</g>
</g>
<mask id="mask1_0_13" style="mask-type:alpha" maskUnits="userSpaceOnUse" x="309" y="-73" width="1513" height="1398">
<rect x="1401.73" y="-72.3118" width="965.079" height="1213.44" transform="rotate(64.2136 1401.73 -72.3118)" fill="url(#paint1_linear_0_13)"/>
</mask>
<g mask="url(#mask1_0_13)">
<path d="M1063.18 1018.58C886.148 1104.11 673.302 1029.93 587.774 852.899C502.246 675.868 576.424 463.022 753.455 377.494C930.485 291.966 904.788 481.39 990.316 658.421C1075.84 835.451 1240.21 933.051 1063.18 1018.58Z" fill="#FF4DED"/>
<g filter="url(#filter5_f_0_13)">
<path d="M1056.79 1021.67C919.752 1087.87 739.328 998.031 653.8 821.001C568.272 643.97 610.028 446.788 747.065 380.582C884.102 314.376 1064.53 404.217 1150.05 581.247C1235.58 758.278 1193.83 955.46 1056.79 1021.67Z" fill="#FF4DED"/>
</g>
<g filter="url(#filter6_f_0_13)">
<ellipse cx="914.707" cy="694.948" rx="355.991" ry="275.568" transform="rotate(64.2136 914.707 694.948)" fill="#FF4DED"/>
</g>
<g filter="url(#filter7_f_0_13)">
<ellipse cx="949.848" cy="677.972" rx="355.991" ry="276.75" transform="rotate(64.2136 949.848 677.972)" fill="#FF4DED"/>
</g>
<g filter="url(#filter8_f_0_13)">
<ellipse cx="1055.28" cy="627.037" rx="355.991" ry="275.568" transform="rotate(64.2136 1055.28 627.037)" fill="#FF4DED"/>
</g>
<g filter="url(#filter9_f_0_13)">
<ellipse cx="1197.98" cy="558.094" rx="299.222" ry="275.568" transform="rotate(64.2136 1197.98 558.094)" fill="#FF4DED"/>
</g>
</g>
</g>
<g opacity="0.25">
<mask id="mask2_0_13" style="mask-type:alpha" maskUnits="userSpaceOnUse" x="331" y="533" width="1501" height="533">
<rect x="1831.61" y="672.113" width="394.765" height="1469.55" transform="rotate(95.4175 1831.61 672.113)" fill="url(#paint2_linear_0_13)"/>
</mask>
<g mask="url(#mask2_0_13)">
<path d="M859.684 923.022C622.644 900.542 436.64 817.414 444.233 737.351C451.826 657.288 650.14 610.607 887.18 633.087C1124.22 655.567 990.819 708.403 983.227 788.467C975.634 868.53 1096.72 945.502 859.684 923.022Z" fill="#57AEFF"/>
<g filter="url(#filter10_f_0_13)">
<path d="M851.124 922.209C667.634 904.808 525.042 825.797 532.635 745.734C540.228 665.67 695.131 614.873 878.62 632.274C1062.11 649.675 1204.7 728.686 1197.11 808.749C1189.52 888.813 1034.61 939.61 851.124 922.209Z" fill="#57AEFF"/>
</g>
<g filter="url(#filter11_f_0_13)">
<ellipse cx="881.98" cy="778.864" rx="145.618" ry="333.728" transform="rotate(95.4175 881.98 778.864)" fill="#57AEFF"/>
</g>
<g filter="url(#filter12_f_0_13)">
<ellipse cx="929.042" cy="783.328" rx="145.618" ry="335.16" transform="rotate(95.4175 929.042 783.328)" fill="#57AEFF"/>
</g>
<g filter="url(#filter13_f_0_13)">
<ellipse cx="1070.2" cy="796.714" rx="145.618" ry="333.728" transform="rotate(95.4175 1070.2 796.714)" fill="#57AEFF"/>
</g>
<g filter="url(#filter14_f_0_13)">
<ellipse cx="1261.27" cy="814.834" rx="122.397" ry="333.728" transform="rotate(95.4175 1261.27 814.834)" fill="#57AEFF"/>
</g>
</g>
<mask id="mask3_0_13" style="mask-type:alpha" maskUnits="userSpaceOnUse" x="59" y="618" width="1731" height="605">
<rect width="1021.29" height="869.477" transform="matrix(-0.994335 0.106288 -0.822244 -0.569136 1789.74 1113.58)" fill="url(#paint3_linear_0_13)"/>
</mask>
<g mask="url(#mask3_0_13)">
<path d="M451.546 889.582C335.65 809.41 409.435 726.51 616.349 704.42C823.264 682.329 1084.95 729.413 1200.85 809.585C1316.75 889.756 1086.79 864.628 879.88 886.718C672.965 908.809 567.442 969.754 451.546 889.582Z" fill="#4A46FF"/>
<g filter="url(#filter15_f_0_13)">
<path d="M447.362 886.688C357.648 824.628 452.659 756.411 659.573 734.32C866.488 712.23 1106.95 744.631 1196.67 806.691C1286.38 868.751 1191.37 936.968 984.455 959.059C777.54 981.149 537.075 948.748 447.362 886.688Z" fill="#4A46FF"/>
</g>
<g filter="url(#filter16_f_0_13)">
<ellipse cx="376.724" cy="197.454" rx="376.724" ry="197.454" transform="matrix(-0.994499 0.106175 -0.822675 -0.569089 1367.48 924.848)" fill="#4A46FF"/>
</g>
<g filter="url(#filter17_f_0_13)">
<ellipse cx="376.724" cy="198.302" rx="376.724" ry="198.302" transform="matrix(-0.994499 0.106175 -0.822675 -0.569089 1391.18 941.245)" fill="#4A46FF"/>
</g>
<g filter="url(#filter18_f_0_13)">
<ellipse cx="376.724" cy="197.454" rx="376.724" ry="197.454" transform="matrix(-0.994499 0.106175 -0.822675 -0.569089 1459.5 988.507)" fill="#4A46FF"/>
</g>
<g filter="url(#filter19_f_0_13)">
<ellipse cx="316.649" cy="197.454" rx="316.649" ry="197.454" transform="matrix(-0.994499 0.106175 -0.822675 -0.569089 1493.18 1059.51)" fill="#4A46FF"/>
</g>
</g>
</g>
<g opacity="0.4">
<mask id="mask4_0_13" style="mask-type:alpha" maskUnits="userSpaceOnUse" x="-254" y="-381" width="1455" height="1593">
<rect x="-253.024" y="24.6577" width="1027.05" height="1291.36" transform="rotate(-23.2549 -253.024 24.6577)" fill="url(#paint4_linear_0_13)"/>
</mask>
<g mask="url(#mask4_0_13)">
<path d="M890.862 435.876C973.472 628.11 884.604 850.915 692.37 933.524C500.137 1016.13 277.332 927.266 194.722 735.032C112.112 542.799 312.294 579.023 504.528 496.413C696.762 413.803 808.253 243.642 890.862 435.876Z" fill="#2C67FF"/>
<g filter="url(#filter20_f_0_13)">
<path d="M893.849 442.81C957.796 591.615 853.799 779.215 661.565 861.825C469.331 944.434 261.655 890.772 197.708 741.966C133.761 593.161 237.758 405.562 429.992 322.952C622.226 240.342 829.901 294.004 893.849 442.81Z" fill="#2C67FF"/>
</g>
<g filter="url(#filter21_f_0_13)">
<ellipse cx="539.813" cy="578.515" rx="378.849" ry="293.262" transform="rotate(-23.2549 539.813 578.515)" fill="#2C67FF"/>
</g>
<g filter="url(#filter22_f_0_13)">
<ellipse cx="523.416" cy="540.356" rx="378.849" ry="294.52" transform="rotate(-23.2549 523.416 540.356)" fill="#2C67FF"/>
</g>
<g filter="url(#filter23_f_0_13)">
<ellipse cx="474.219" cy="425.872" rx="378.849" ry="293.262" transform="rotate(-23.2549 474.219 425.872)" fill="#2C67FF"/>
</g>
<g filter="url(#filter24_f_0_13)">
<ellipse cx="407.627" cy="270.917" rx="318.435" ry="293.262" transform="rotate(-23.2549 407.627 270.917)" fill="#2C67FF"/>
</g>
</g>
<mask id="mask5_0_13" style="mask-type:alpha" maskUnits="userSpaceOnUse" x="-153" y="264" width="880" height="741">
<rect x="-152.168" y="895.155" width="636.095" height="799.795" transform="rotate(-82.1664 -152.168 895.155)" fill="url(#paint5_linear_0_13)"/>
</mask>
<g mask="url(#mask5_0_13)">
<path d="M431.757 419.962C560.134 437.625 649.887 556.013 632.224 684.391C614.562 812.769 496.174 902.521 367.796 884.859C239.418 867.197 322.651 772.607 340.313 644.23C357.975 515.852 303.379 402.3 431.757 419.962Z" fill="#094EFF"/>
<g filter="url(#filter25_f_0_13)">
<path d="M436.391 420.601C535.766 434.273 602.008 549.427 584.346 677.805C566.684 806.182 471.806 899.169 372.43 885.497C273.055 871.825 206.814 756.671 224.476 628.294C242.138 499.916 337.016 406.929 436.391 420.601Z" fill="#094EFF"/>
</g>
<g filter="url(#filter26_f_0_13)">
<ellipse cx="395.146" cy="651.773" rx="234.638" ry="181.63" transform="rotate(-82.1664 395.146 651.773)" fill="#094EFF"/>
</g>
<g filter="url(#filter27_f_0_13)">
<ellipse cx="369.657" cy="648.268" rx="234.638" ry="182.409" transform="rotate(-82.1664 369.657 648.268)" fill="#094EFF"/>
</g>
<g filter="url(#filter28_f_0_13)">
<ellipse cx="293.206" cy="637.748" rx="234.638" ry="181.63" transform="rotate(-82.1664 293.206 637.748)" fill="#094EFF"/>
</g>
<g filter="url(#filter29_f_0_13)">
<ellipse cx="189.725" cy="623.512" rx="197.22" ry="181.63" transform="rotate(-82.1664 189.725 623.512)" fill="#094EFF"/>
</g>
</g>
</g>
<g opacity="0.4">
<mask id="mask6_0_13" style="mask-type:alpha" maskUnits="userSpaceOnUse" x="90" y="290" width="1165" height="1158">
<rect x="592.119" y="1447.32" width="726.957" height="914.042" transform="rotate(-133.6 592.119 1447.32)" fill="url(#paint6_linear_0_13)"/>
</mask>
<g mask="url(#mask6_0_13)">
<path d="M583.534 586.98C690.782 484.849 860.517 488.998 962.648 596.247C1064.78 703.495 1060.63 873.231 953.381 975.361C846.133 1077.49 820.911 935.725 718.781 828.477C616.65 721.228 476.285 689.111 583.534 586.98Z" fill="#0066FF"/>
<g filter="url(#filter30_f_0_13)">
<path d="M587.4 583.291C670.42 504.233 820.514 527.086 922.645 634.335C1024.78 741.583 1040.27 892.615 957.248 971.673C874.229 1050.73 724.135 1027.88 622.004 920.629C519.873 813.381 504.381 662.349 587.4 583.291Z" fill="#0066FF"/>
</g>
<g filter="url(#filter31_f_0_13)">
<ellipse cx="764.585" cy="784.855" rx="268.154" ry="207.575" transform="rotate(-133.6 764.585 784.855)" fill="#0066FF"/>
</g>
<g filter="url(#filter32_f_0_13)">
<ellipse cx="743.296" cy="805.127" rx="268.154" ry="208.466" transform="rotate(-133.6 743.296 805.127)" fill="#0066FF"/>
</g>
<g filter="url(#filter33_f_0_13)">
<ellipse cx="679.424" cy="865.951" rx="268.154" ry="207.575" transform="rotate(-133.6 679.424 865.951)" fill="#0066FF"/>
</g>
<g filter="url(#filter34_f_0_13)">
<ellipse cx="592.974" cy="948.277" rx="225.392" ry="207.575" transform="rotate(-133.6 592.974 948.277)" fill="#0066FF"/>
</g>
</g>
<mask id="mask7_0_13" style="mask-type:alpha" maskUnits="userSpaceOnUse" x="582" y="613" width="564" height="651">
<rect x="1145.01" y="1166.17" width="450.236" height="566.106" transform="rotate(167.489 1145.01 1166.17)" fill="url(#paint7_linear_0_13)"/>
</mask>
<g mask="url(#mask7_0_13)">
<path d="M685.952 895.587C666.082 806.041 722.565 717.343 812.11 697.472C901.656 677.602 990.354 734.085 1010.22 823.63C1030.09 913.176 946.837 881.215 857.292 901.085C767.747 920.955 705.823 985.132 685.952 895.587Z" fill="#096BFF"/>
<g filter="url(#filter35_f_0_13)">
<path d="M685.236 892.354C669.854 823.038 729.976 750.739 819.522 730.869C909.067 710.998 994.126 751.082 1009.51 820.398C1024.89 889.713 964.767 962.013 875.222 981.883C785.677 1001.75 700.617 961.67 685.236 892.354Z" fill="#096BFF"/>
</g>
<g filter="url(#filter36_f_0_13)">
<ellipse cx="848.805" cy="862.839" rx="166.08" ry="128.56" transform="rotate(167.489 848.805 862.839)" fill="#096BFF"/>
</g>
<g filter="url(#filter37_f_0_13)">
<ellipse cx="852.751" cy="880.617" rx="166.08" ry="129.112" transform="rotate(167.489 852.751 880.617)" fill="#096BFF"/>
</g>
<g filter="url(#filter38_f_0_13)">
<ellipse cx="864.583" cy="933.943" rx="166.08" ry="128.56" transform="rotate(167.489 864.583 933.943)" fill="#096BFF"/>
</g>
<g filter="url(#filter39_f_0_13)">
<ellipse cx="880.6" cy="1006.12" rx="139.595" ry="128.56" transform="rotate(167.489 880.6 1006.12)" fill="#096BFF"/>
</g>
</g>
</g>
<defs>
<filter id="filter0_f_0_13" x="365.029" y="372.411" width="723.012" height="564.98" filterUnits="userSpaceOnUse" color-interpolation-filters="sRGB">
<feFlood flood-opacity="0" result="BackgroundImageFix"/>
<feBlend mode="normal" in="SourceGraphic" in2="BackgroundImageFix" result="shape"/>
<feGaussianBlur stdDeviation="3.0545" result="effect1_foregroundBlur_0_13"/>
</filter>
<filter id="filter1_f_0_13" x="351.066" y="343.009" width="753.557" height="595.525" filterUnits="userSpaceOnUse" color-interpolation-filters="sRGB">
<feFlood flood-opacity="0" result="BackgroundImageFix"/>
<feBlend mode="normal" in="SourceGraphic" in2="BackgroundImageFix" result="shape"/>
<feGaussianBlur stdDeviation="10.6908" result="effect1_foregroundBlur_0_13"/>
</filter>
<filter id="filter2_f_0_13" x="324.122" y="272.428" width="814.662" height="658.954" filterUnits="userSpaceOnUse" color-interpolation-filters="sRGB">
<feFlood flood-opacity="0" result="BackgroundImageFix"/>
<feBlend mode="normal" in="SourceGraphic" in2="BackgroundImageFix" result="shape"/>
<feGaussianBlur stdDeviation="25.9633" result="effect1_foregroundBlur_0_13"/>
</filter>
<filter id="filter3_f_0_13" x="273.859" y="95.9241" width="936.827" height="778.795" filterUnits="userSpaceOnUse" color-interpolation-filters="sRGB">
<feFlood flood-opacity="0" result="BackgroundImageFix"/>
<feBlend mode="normal" in="SourceGraphic" in2="BackgroundImageFix" result="shape"/>
<feGaussianBlur stdDeviation="56.5083" result="effect1_foregroundBlur_0_13"/>
</filter>
<filter id="filter4_f_0_13" x="259.329" y="-146.822" width="995.175" height="948.684" filterUnits="userSpaceOnUse" color-interpolation-filters="sRGB">
<feFlood flood-opacity="0" result="BackgroundImageFix"/>
<feBlend mode="normal" in="SourceGraphic" in2="BackgroundImageFix" result="shape"/>
<feGaussianBlur stdDeviation="99.2713" result="effect1_foregroundBlur_0_13"/>
</filter>
<filter id="filter5_f_0_13" x="603.29" y="352.697" width="597.274" height="696.853" filterUnits="userSpaceOnUse" color-interpolation-filters="sRGB">
<feFlood flood-opacity="0" result="BackgroundImageFix"/>
<feBlend mode="normal" in="SourceGraphic" in2="BackgroundImageFix" result="shape"/>
<feGaussianBlur stdDeviation="3.0545" result="effect1_foregroundBlur_0_13"/>
</filter>
<filter id="filter6_f_0_13" x="600.798" y="331.248" width="627.819" height="727.398" filterUnits="userSpaceOnUse" color-interpolation-filters="sRGB">
<feFlood flood-opacity="0" result="BackgroundImageFix"/>
<feBlend mode="normal" in="SourceGraphic" in2="BackgroundImageFix" result="shape"/>
<feGaussianBlur stdDeviation="10.6908" result="effect1_foregroundBlur_0_13"/>
</filter>
<filter id="filter7_f_0_13" x="604.489" y="283.548" width="690.718" height="788.849" filterUnits="userSpaceOnUse" color-interpolation-filters="sRGB">
<feFlood flood-opacity="0" result="BackgroundImageFix"/>
<feBlend mode="normal" in="SourceGraphic" in2="BackgroundImageFix" result="shape"/>
<feGaussianBlur stdDeviation="25.9633" result="effect1_foregroundBlur_0_13"/>
</filter>
<filter id="filter8_f_0_13" x="649.732" y="171.702" width="811.089" height="910.668" filterUnits="userSpaceOnUse" color-interpolation-filters="sRGB">
<feFlood flood-opacity="0" result="BackgroundImageFix"/>
<feBlend mode="normal" in="SourceGraphic" in2="BackgroundImageFix" result="shape"/>
<feGaussianBlur stdDeviation="56.5083" result="effect1_foregroundBlur_0_13"/>
</filter>
<filter id="filter9_f_0_13" x="719.18" y="64.5868" width="957.594" height="987.014" filterUnits="userSpaceOnUse" color-interpolation-filters="sRGB">
<feFlood flood-opacity="0" result="BackgroundImageFix"/>
<feBlend mode="normal" in="SourceGraphic" in2="BackgroundImageFix" result="shape"/>
<feGaussianBlur stdDeviation="99.2713" result="effect1_foregroundBlur_0_13"/>
</filter>
<filter id="filter10_f_0_13" x="528.067" y="624.58" width="673.609" height="305.322" filterUnits="userSpaceOnUse" color-interpolation-filters="sRGB">
<feFlood flood-opacity="0" result="BackgroundImageFix"/>
<feBlend mode="normal" in="SourceGraphic" in2="BackgroundImageFix" result="shape"/>
<feGaussianBlur stdDeviation="2.13896" result="effect1_foregroundBlur_0_13"/>
</filter>
<filter id="filter11_f_0_13" x="534.481" y="615.508" width="694.998" height="326.712" filterUnits="userSpaceOnUse" color-interpolation-filters="sRGB">
<feFlood flood-opacity="0" result="BackgroundImageFix"/>
<feBlend mode="normal" in="SourceGraphic" in2="BackgroundImageFix" result="shape"/>
<feGaussianBlur stdDeviation="7.48635" result="effect1_foregroundBlur_0_13"/>
</filter>
<filter id="filter12_f_0_13" x="558.729" y="598.554" width="740.627" height="369.549" filterUnits="userSpaceOnUse" color-interpolation-filters="sRGB">
<feFlood flood-opacity="0" result="BackgroundImageFix"/>
<feBlend mode="normal" in="SourceGraphic" in2="BackgroundImageFix" result="shape"/>
<feGaussianBlur stdDeviation="18.1811" result="effect1_foregroundBlur_0_13"/>
</filter>
<filter id="filter13_f_0_13" x="658.535" y="569.189" width="823.336" height="455.049" filterUnits="userSpaceOnUse" color-interpolation-filters="sRGB">
<feFlood flood-opacity="0" result="BackgroundImageFix"/>
<feBlend mode="normal" in="SourceGraphic" in2="BackgroundImageFix" result="shape"/>
<feGaussianBlur stdDeviation="39.5707" result="effect1_foregroundBlur_0_13"/>
</filter>
<filter id="filter14_f_0_13" x="789.801" y="549.914" width="942.948" height="529.84" filterUnits="userSpaceOnUse" color-interpolation-filters="sRGB">
<feFlood flood-opacity="0" result="BackgroundImageFix"/>
<feBlend mode="normal" in="SourceGraphic" in2="BackgroundImageFix" result="shape"/>
<feGaussianBlur stdDeviation="69.5161" result="effect1_foregroundBlur_0_13"/>
</filter>
<filter id="filter15_f_0_13" x="409.28" y="723.103" width="825.467" height="247.172" filterUnits="userSpaceOnUse" color-interpolation-filters="sRGB">
<feFlood flood-opacity="0" result="BackgroundImageFix"/>
<feBlend mode="normal" in="SourceGraphic" in2="BackgroundImageFix" result="shape"/>
<feGaussianBlur stdDeviation="2.13896" result="effect1_foregroundBlur_0_13"/>
</filter>
<filter id="filter16_f_0_13" x="406.955" y="718.196" width="846.857" height="268.562" filterUnits="userSpaceOnUse" color-interpolation-filters="sRGB">
<feFlood flood-opacity="0" result="BackgroundImageFix"/>
<feBlend mode="normal" in="SourceGraphic" in2="BackgroundImageFix" result="shape"/>
<feGaussianBlur stdDeviation="7.48635" result="effect1_foregroundBlur_0_13"/>
</filter>
<filter id="filter17_f_0_13" x="408.291" y="712.267" width="890.191" height="312.25" filterUnits="userSpaceOnUse" color-interpolation-filters="sRGB">
<feFlood flood-opacity="0" result="BackgroundImageFix"/>
<feBlend mode="normal" in="SourceGraphic" in2="BackgroundImageFix" result="shape"/>
<feGaussianBlur stdDeviation="18.1811" result="effect1_foregroundBlur_0_13"/>
</filter>
<filter id="filter18_f_0_13" x="434.811" y="717.687" width="975.194" height="396.899" filterUnits="userSpaceOnUse" color-interpolation-filters="sRGB">
<feFlood flood-opacity="0" result="BackgroundImageFix"/>
<feBlend mode="normal" in="SourceGraphic" in2="BackgroundImageFix" result="shape"/>
<feGaussianBlur stdDeviation="39.5707" result="effect1_foregroundBlur_0_13"/>
</filter>
<filter id="filter19_f_0_13" x="522.388" y="724.407" width="986.883" height="512.708" filterUnits="userSpaceOnUse" color-interpolation-filters="sRGB">
<feFlood flood-opacity="0" result="BackgroundImageFix"/>
<feBlend mode="normal" in="SourceGraphic" in2="BackgroundImageFix" result="shape"/>
<feGaussianBlur stdDeviation="69.5161" result="effect1_foregroundBlur_0_13"/>
</filter>
<filter id="filter20_f_0_13" x="171.778" y="277.084" width="748" height="630.609" filterUnits="userSpaceOnUse" color-interpolation-filters="sRGB">
<feFlood flood-opacity="0" result="BackgroundImageFix"/>
<feBlend mode="normal" in="SourceGraphic" in2="BackgroundImageFix" result="shape"/>
<feGaussianBlur stdDeviation="3.53844" result="effect1_foregroundBlur_0_13"/>
</filter>
<filter id="filter21_f_0_13" x="148.121" y="245.518" width="783.384" height="665.994" filterUnits="userSpaceOnUse" color-interpolation-filters="sRGB">
<feFlood flood-opacity="0" result="BackgroundImageFix"/>
<feBlend mode="normal" in="SourceGraphic" in2="BackgroundImageFix" result="shape"/>
<feGaussianBlur stdDeviation="12.3845" result="effect1_foregroundBlur_0_13"/>
</filter>
<filter id="filter22_f_0_13" x="96.1828" y="170.962" width="854.467" height="738.787" filterUnits="userSpaceOnUse" color-interpolation-filters="sRGB">
<feFlood flood-opacity="0" result="BackgroundImageFix"/>
<feBlend mode="normal" in="SourceGraphic" in2="BackgroundImageFix" result="shape"/>
<feGaussianBlur stdDeviation="30.0767" result="effect1_foregroundBlur_0_13"/>
</filter>
<filter id="filter23_f_0_13" x="-23.6265" y="-13.2785" width="995.69" height="878.3" filterUnits="userSpaceOnUse" color-interpolation-filters="sRGB">
<feFlood flood-opacity="0" result="BackgroundImageFix"/>
<feBlend mode="normal" in="SourceGraphic" in2="BackgroundImageFix" result="shape"/>
<feGaussianBlur stdDeviation="65.4612" result="effect1_foregroundBlur_0_13"/>
</filter>
<filter id="filter24_f_0_13" x="-137.098" y="-256.479" width="1089.45" height="1054.79" filterUnits="userSpaceOnUse" color-interpolation-filters="sRGB">
<feFlood flood-opacity="0" result="BackgroundImageFix"/>
<feBlend mode="normal" in="SourceGraphic" in2="BackgroundImageFix" result="shape"/>
<feGaussianBlur stdDeviation="114.999" result="effect1_foregroundBlur_0_13"/>
</filter>
<filter id="filter25_f_0_13" x="214.548" y="412.19" width="379.725" height="481.718" filterUnits="userSpaceOnUse" color-interpolation-filters="sRGB">
<feFlood flood-opacity="0" result="BackgroundImageFix"/>
<feBlend mode="normal" in="SourceGraphic" in2="BackgroundImageFix" result="shape"/>
<feGaussianBlur stdDeviation="3.53844" result="effect1_foregroundBlur_0_13"/>
</filter>
<filter id="filter26_f_0_13" x="187.591" y="393.221" width="415.11" height="517.102" filterUnits="userSpaceOnUse" color-interpolation-filters="sRGB">
<feFlood flood-opacity="0" result="BackgroundImageFix"/>
<feBlend mode="normal" in="SourceGraphic" in2="BackgroundImageFix" result="shape"/>
<feGaussianBlur stdDeviation="12.3845" result="effect1_foregroundBlur_0_13"/>
</filter>
<filter id="filter27_f_0_13" x="125.957" y="354.322" width="487.399" height="587.894" filterUnits="userSpaceOnUse" color-interpolation-filters="sRGB">
<feFlood flood-opacity="0" result="BackgroundImageFix"/>
<feBlend mode="normal" in="SourceGraphic" in2="BackgroundImageFix" result="shape"/>
<feGaussianBlur stdDeviation="30.0767" result="effect1_foregroundBlur_0_13"/>
</filter>
<filter id="filter28_f_0_13" x="-20.5019" y="273.044" width="627.416" height="729.409" filterUnits="userSpaceOnUse" color-interpolation-filters="sRGB">
<feFlood flood-opacity="0" result="BackgroundImageFix"/>
<feBlend mode="normal" in="SourceGraphic" in2="BackgroundImageFix" result="shape"/>
<feGaussianBlur stdDeviation="65.4612" result="effect1_foregroundBlur_0_13"/>
</filter>
<filter id="filter29_f_0_13" x="-222.23" y="196.55" width="823.91" height="853.924" filterUnits="userSpaceOnUse" color-interpolation-filters="sRGB">
<feFlood flood-opacity="0" result="BackgroundImageFix"/>
<feBlend mode="normal" in="SourceGraphic" in2="BackgroundImageFix" result="shape"/>
<feGaussianBlur stdDeviation="114.999" result="effect1_foregroundBlur_0_13"/>
</filter>
<filter id="filter30_f_0_13" x="526.927" y="529.14" width="490.795" height="496.683" filterUnits="userSpaceOnUse" color-interpolation-filters="sRGB">
<feFlood flood-opacity="0" result="BackgroundImageFix"/>
<feBlend mode="normal" in="SourceGraphic" in2="BackgroundImageFix" result="shape"/>
<feGaussianBlur stdDeviation="3.53844" result="effect1_foregroundBlur_0_13"/>
</filter>
<filter id="filter31_f_0_13" x="501.495" y="518.822" width="526.179" height="532.068" filterUnits="userSpaceOnUse" color-interpolation-filters="sRGB">
<feFlood flood-opacity="0" result="BackgroundImageFix"/>
<feBlend mode="normal" in="SourceGraphic" in2="BackgroundImageFix" result="shape"/>
<feGaussianBlur stdDeviation="12.3845" result="effect1_foregroundBlur_0_13"/>
</filter>
<filter id="filter32_f_0_13" x="444.415" y="503.345" width="597.762" height="603.566" filterUnits="userSpaceOnUse" color-interpolation-filters="sRGB">
<feFlood flood-opacity="0" result="BackgroundImageFix"/>
<feBlend mode="normal" in="SourceGraphic" in2="BackgroundImageFix" result="shape"/>
<feGaussianBlur stdDeviation="30.0767" result="effect1_foregroundBlur_0_13"/>
</filter>
<filter id="filter33_f_0_13" x="310.181" y="493.764" width="738.486" height="744.374" filterUnits="userSpaceOnUse" color-interpolation-filters="sRGB">
<feFlood flood-opacity="0" result="BackgroundImageFix"/>
<feBlend mode="normal" in="SourceGraphic" in2="BackgroundImageFix" result="shape"/>
<feGaussianBlur stdDeviation="65.4612" result="effect1_foregroundBlur_0_13"/>
</filter>
<filter id="filter34_f_0_13" x="146.744" y="501.174" width="892.46" height="894.206" filterUnits="userSpaceOnUse" color-interpolation-filters="sRGB">
<feFlood flood-opacity="0" result="BackgroundImageFix"/>
<feBlend mode="normal" in="SourceGraphic" in2="BackgroundImageFix" result="shape"/>
<feGaussianBlur stdDeviation="114.999" result="effect1_foregroundBlur_0_13"/>
</filter>
<filter id="filter35_f_0_13" x="675.758" y="718.703" width="343.228" height="275.346" filterUnits="userSpaceOnUse" color-interpolation-filters="sRGB">
<feFlood flood-opacity="0" result="BackgroundImageFix"/>
<feBlend mode="normal" in="SourceGraphic" in2="BackgroundImageFix" result="shape"/>
<feGaussianBlur stdDeviation="3.53844" result="effect1_foregroundBlur_0_13"/>
</filter>
<filter id="filter36_f_0_13" x="659.498" y="707.474" width="378.613" height="310.73" filterUnits="userSpaceOnUse" color-interpolation-filters="sRGB">
<feFlood flood-opacity="0" result="BackgroundImageFix"/>
<feBlend mode="normal" in="SourceGraphic" in2="BackgroundImageFix" result="shape"/>
<feGaussianBlur stdDeviation="12.3845" result="effect1_foregroundBlur_0_13"/>
</filter>
<filter id="filter37_f_0_13" x="628.04" y="689.35" width="449.422" height="382.535" filterUnits="userSpaceOnUse" color-interpolation-filters="sRGB">
<feFlood flood-opacity="0" result="BackgroundImageFix"/>
<feBlend mode="normal" in="SourceGraphic" in2="BackgroundImageFix" result="shape"/>
<feGaussianBlur stdDeviation="30.0767" result="effect1_foregroundBlur_0_13"/>
</filter>
<filter id="filter38_f_0_13" x="569.124" y="672.425" width="590.919" height="523.036" filterUnits="userSpaceOnUse" color-interpolation-filters="sRGB">
<feFlood flood-opacity="0" result="BackgroundImageFix"/>
<feBlend mode="normal" in="SourceGraphic" in2="BackgroundImageFix" result="shape"/>
<feGaussianBlur stdDeviation="65.4612" result="effect1_foregroundBlur_0_13"/>
</filter>
<filter id="filter39_f_0_13" x="511.477" y="646.994" width="738.246" height="718.255" filterUnits="userSpaceOnUse" color-interpolation-filters="sRGB">
<feFlood flood-opacity="0" result="BackgroundImageFix"/>
<feBlend mode="normal" in="SourceGraphic" in2="BackgroundImageFix" result="shape"/>
<feGaussianBlur stdDeviation="114.999" result="effect1_foregroundBlur_0_13"/>
</filter>
<linearGradient id="paint0_linear_0_13" x1="1030.71" y1="793.768" x2="1030.71" y2="-172.493" gradientUnits="userSpaceOnUse">
<stop stop-color="white"/>
<stop offset="1" stop-color="white" stop-opacity="0"/>
</linearGradient>
<linearGradient id="paint1_linear_0_13" x1="2110.17" y1="893.95" x2="2110.17" y2="-72.3118" gradientUnits="userSpaceOnUse">
<stop stop-color="white"/>
<stop offset="1" stop-color="white" stop-opacity="0"/>
</linearGradient>
<linearGradient id="paint2_linear_0_13" x1="2121.39" y1="1842.31" x2="2121.39" y2="672.113" gradientUnits="userSpaceOnUse">
<stop stop-color="white"/>
<stop offset="1" stop-color="white" stop-opacity="0"/>
</linearGradient>
<linearGradient id="paint3_linear_0_13" x1="749.694" y1="692.361" x2="749.694" y2="5.38646e-06" gradientUnits="userSpaceOnUse">
<stop stop-color="white"/>
<stop offset="1" stop-color="white" stop-opacity="0"/>
</linearGradient>
<linearGradient id="paint4_linear_0_13" x1="500.898" y1="1052.96" x2="500.898" y2="24.6577" gradientUnits="userSpaceOnUse">
<stop stop-color="white"/>
<stop offset="1" stop-color="white" stop-opacity="0"/>
</linearGradient>
<linearGradient id="paint5_linear_0_13" x1="314.769" y1="1532.03" x2="314.769" y2="895.155" gradientUnits="userSpaceOnUse">
<stop stop-color="white"/>
<stop offset="1" stop-color="white" stop-opacity="0"/>
</linearGradient>
<linearGradient id="paint6_linear_0_13" x1="1125.76" y1="2175.17" x2="1125.76" y2="1447.32" gradientUnits="userSpaceOnUse">
<stop stop-color="white"/>
<stop offset="1" stop-color="white" stop-opacity="0"/>
</linearGradient>
<linearGradient id="paint7_linear_0_13" x1="1475.52" y1="1616.96" x2="1475.52" y2="1166.17" gradientUnits="userSpaceOnUse">
<stop stop-color="white"/>
<stop offset="1" stop-color="white" stop-opacity="0"/>
</linearGradient>
</defs>
</svg>
