<svg width="1097" height="610" viewBox="0 0 1097 610" fill="none" xmlns="http://www.w3.org/2000/svg">
<path d="M245.084 590.318C155.339 590.318 145.019 590.615 10.1087 591.275L1.12671 594.425C15.4454 598.502 58.4111 610 73.4607 610H1022.77C1031.43 610 1048.96 606.265 1064.59 602.451C1080.88 598.478 1095.11 594.425 1095.11 594.425L1086.13 591.275C535.128 590.664 342.914 590.318 245.084 590.318Z" fill="#E8ECF7"/>
<path d="M963.815 0.643799H131.935C125.234 0.651899 118.811 3.32169 114.078 8.06566C109.345 12.8096 106.69 19.239 106.697 25.9402V575.858C106.691 579.675 107.551 583.444 109.213 586.882H986.535C988.198 583.445 989.06 579.676 989.055 575.858V25.9342C989.06 19.2339 986.404 12.8058 981.671 8.06327C976.938 3.3207 970.515 0.651899 963.815 0.643799Z" fill="#F2F6FE"/>
<path d="M547.873 17.4213C549.507 17.4213 550.831 16.1024 550.831 14.4754C550.831 12.8485 549.507 11.5295 547.873 11.5295C546.24 11.5295 544.915 12.8485 544.915 14.4754C544.915 16.1024 546.24 17.4213 547.873 17.4213Z" fill="#C5CCDD"/>
<path d="M245.084 590.318C155.339 590.318 145.019 590.615 10.1087 591.275L1.12671 594.425C15.4454 598.502 58.4111 610 73.4607 610H1022.77C1031.43 610 1048.96 606.265 1064.59 602.451C1080.88 598.478 1095.11 594.425 1095.11 594.425L1086.13 591.275C535.128 590.664 342.914 590.318 245.084 590.318Z" fill="url(#paint0_linear_0_124)"/>
<path d="M1093.28 586.383H3.16332C2.74736 586.383 2.33555 586.466 1.95141 586.626C1.56727 586.785 1.21831 587.019 0.924528 587.313C0.630742 587.608 0.398002 587.957 0.239342 588.341C0.080681 588.726 -0.000638751 589.138 3.77802e-06 589.554V591.579C-0.000638751 591.995 0.080681 592.407 0.239342 592.792C0.398002 593.176 0.630742 593.525 0.924528 593.82C1.21831 594.114 1.56727 594.349 1.95141 594.508C2.33555 594.668 2.74736 594.75 3.16332 594.75H1093.28C1093.69 594.75 1094.1 594.668 1094.49 594.508C1094.87 594.349 1095.22 594.115 1095.51 593.821C1095.81 593.526 1096.04 593.177 1096.2 592.792C1096.36 592.408 1096.44 591.995 1096.44 591.579V589.554C1096.44 589.138 1096.36 588.726 1096.2 588.341C1096.04 587.957 1095.81 587.607 1095.51 587.312C1095.22 587.018 1094.87 586.784 1094.49 586.625C1094.1 586.465 1093.69 586.383 1093.28 586.383Z" fill="white"/>
<path d="M626.752 586.254H469.068C477.464 589.889 486.515 591.766 495.663 591.77H600.166C609.313 591.762 618.361 589.885 626.757 586.254" fill="url(#paint1_linear_0_124)"/>
<path d="M965.765 30.8364H129.932C126.905 30.8364 124.45 33.2909 124.45 36.3186V568.86C124.45 571.887 126.905 574.342 129.932 574.342H965.765C968.793 574.342 971.248 571.887 971.248 568.86V36.3186C971.248 33.2909 968.793 30.8364 965.765 30.8364Z" fill="white"/>
<defs>
<linearGradient id="paint0_linear_0_124" x1="548.119" y1="614.92" x2="548.119" y2="585.397" gradientUnits="userSpaceOnUse">
<stop stop-color="#BBBECD"/>
<stop offset="0.27" stop-color="#D2D4DE"/>
<stop offset="1" stop-color="white"/>
</linearGradient>
<linearGradient id="paint1_linear_0_124" x1="547.913" y1="593.149" x2="547.913" y2="584.875" gradientUnits="userSpaceOnUse">
<stop stop-color="#C5DAE6"/>
<stop offset="0.27" stop-color="#D9E2F2"/>
<stop offset="1" stop-color="white"/>
</linearGradient>
</defs>
</svg>
