<svg width="68" height="67" viewBox="0 0 68 67" fill="none" xmlns="http://www.w3.org/2000/svg">
<circle opacity="0.1" cx="34" cy="33.1419" r="33.1419" fill="#605BFF"/>
<g clip-path="url(#clip0_0_242)">
<path d="M42.347 30.8093L35.0458 19.8576C34.6152 19.28 33.7979 19.1609 33.2203 19.5915C33.1193 19.6669 33.0297 19.7565 32.9543 19.8576L25.6531 30.8093C24.6437 32.3402 24.0475 34.1061 23.9223 35.9356C23.7971 37.765 24.1472 39.5957 24.9387 41.2498C25.6658 42.813 26.7905 44.158 28.2004 45.1504C29.6102 46.1428 31.2558 46.7478 32.9726 46.9049C33.3109 46.935 33.6533 46.951 34.0001 46.951C34.3469 46.951 34.6893 46.935 35.0281 46.9049C36.7449 46.7477 38.3903 46.1426 39.8001 45.1503C41.2098 44.1579 42.3344 42.813 43.0615 41.2498C43.8529 39.5957 44.203 37.765 44.0778 35.9356C43.9527 34.1061 43.3564 32.3402 42.347 30.8093ZM40.7937 40.1641C40.2611 41.3385 39.4254 42.35 38.3725 43.0945C37.3197 43.8391 36.0876 44.29 34.8028 44.4008C34.2689 44.4487 33.7318 44.4487 33.1978 44.4008C31.913 44.29 30.6808 43.8392 29.6278 43.0946C28.5749 42.3501 27.7391 41.3386 27.2065 40.1641C26.5916 38.9062 26.3178 37.509 26.4122 36.1121C26.5066 34.7151 26.9661 33.3675 27.7446 32.2038L34.0001 22.8207L40.2555 32.2038C41.034 33.3675 41.4935 34.7151 41.5879 36.1121C41.6824 37.509 41.4085 38.9062 40.7937 40.1641Z" fill="url(#paint0_linear_0_242)"/>
<path d="M34.0001 21.174V45.5701L40.4443 43.7288L42.7458 37.7449L41.8252 32.2212L34.0001 21.174Z" fill="url(#paint1_linear_0_242)"/>
</g>
<defs>
<linearGradient id="paint0_linear_0_242" x1="23.8975" y1="19.3328" x2="50.0763" y2="38.9991" gradientUnits="userSpaceOnUse">
<stop stop-color="#635BFF"/>
<stop offset="1" stop-color="#B36EEE"/>
</linearGradient>
<linearGradient id="paint1_linear_0_242" x1="34.0001" y1="21.174" x2="49.611" y2="26.9206" gradientUnits="userSpaceOnUse">
<stop stop-color="#635BFF"/>
<stop offset="1" stop-color="#B36EEE"/>
</linearGradient>
<clipPath id="clip0_0_242">
<rect width="27.6182" height="27.6182" fill="white" transform="translate(20.1909 19.3328)"/>
</clipPath>
</defs>
</svg>
