<svg width="68" height="67" viewBox="0 0 68 67" fill="none" xmlns="http://www.w3.org/2000/svg">
<circle opacity="0.1" cx="33.9729" cy="33.1419" r="33.1419" fill="#605BFF"/>
<g clip-path="url(#clip0_0_250)">
<path d="M43.1791 46.951H24.7669C22.1585 46.951 20.1638 44.9564 20.1638 42.348V23.9358C20.1638 21.3274 22.1585 19.3328 24.7669 19.3328H43.1791C45.7874 19.3328 47.7821 21.3274 47.7821 23.9358V42.348C47.7821 44.9564 45.7874 46.951 43.1791 46.951ZM24.7669 22.4015C23.8463 22.4015 23.2325 23.0152 23.2325 23.9358V42.348C23.2325 43.2686 23.8463 43.8823 24.7669 43.8823H43.1791C44.0997 43.8823 44.7134 43.2686 44.7134 42.348V23.9358C44.7134 23.0152 44.0997 22.4015 43.1791 22.4015H24.7669Z" fill="url(#paint0_linear_0_250)"/>
<path d="M33.9729 46.951C33.0523 46.951 32.4386 46.3373 32.4386 45.4167V20.8671C32.4386 19.9465 33.0523 19.3328 33.9729 19.3328C34.8935 19.3328 35.5073 19.9465 35.5073 20.8671V45.4167C35.5073 46.3373 34.8935 46.951 33.9729 46.951Z" fill="url(#paint1_linear_0_250)"/>
</g>
<defs>
<linearGradient id="paint0_linear_0_250" x1="20.1638" y1="19.3328" x2="47.4115" y2="47.3119" gradientUnits="userSpaceOnUse">
<stop stop-color="#635BFF"/>
<stop offset="1" stop-color="#B36EEE"/>
</linearGradient>
<linearGradient id="paint1_linear_0_250" x1="32.4386" y1="19.3328" x2="38.5784" y2="20.0333" gradientUnits="userSpaceOnUse">
<stop stop-color="#635BFF"/>
<stop offset="1" stop-color="#B36EEE"/>
</linearGradient>
<clipPath id="clip0_0_250">
<rect width="27.6182" height="27.6182" fill="white" transform="translate(20.1638 19.3328)"/>
</clipPath>
</defs>
</svg>
