<svg width="24" height="24" viewBox="0 0 24 24" fill="none" xmlns="http://www.w3.org/2000/svg">
<path d="M6 12.0001C6.00486 11.474 6.21684 10.971 6.59 10.6001L10.88 6.30007C11.0674 6.11382 11.3208 6.00928 11.585 6.00928C11.8492 6.00928 12.1026 6.11382 12.29 6.30007C12.3837 6.39303 12.4581 6.50363 12.5089 6.62549C12.5597 6.74735 12.5858 6.87806 12.5858 7.01007C12.5858 7.14208 12.5597 7.27279 12.5089 7.39465C12.4581 7.51651 12.3837 7.62711 12.29 7.72007L9 11.0001H19C19.2652 11.0001 19.5196 11.1054 19.7071 11.293C19.8946 11.4805 20 11.7349 20 12.0001C20 12.2653 19.8946 12.5196 19.7071 12.7072C19.5196 12.8947 19.2652 13.0001 19 13.0001H9L12.29 16.2901C12.4783 16.4771 12.5846 16.7312 12.5856 16.9965C12.5865 17.2619 12.482 17.5168 12.295 17.7051C12.108 17.8934 11.8539 17.9997 11.5885 18.0006C11.3232 18.0016 11.0683 17.897 10.88 17.7101L6.59 13.4101C6.21441 13.0367 6.00223 12.5296 6 12.0001Z" fill="white"/>
</svg>
