<svg width="52" height="52" viewBox="0 0 52 52" fill="none" xmlns="http://www.w3.org/2000/svg">
<g clip-path="url(#clip0_3_228)">
<mask id="mask0_3_228" style="mask-type:luminance" maskUnits="userSpaceOnUse" x="0" y="0" width="52" height="52">
<path d="M52 0H0V52H52V0Z" fill="white"/>
</mask>
<g mask="url(#mask0_3_228)">
<path d="M37.7757 22.5103V12.6695C37.7757 12.3879 37.6456 12.1276 37.4614 11.9216L26.4284 0.336029C26.2226 0.119415 25.9298 0 25.6374 0H8.14483C4.91546 0 2.33593 2.63348 2.33593 5.86325V38.9405C2.33593 42.1702 4.91546 44.7605 8.14483 44.7605H21.9525C24.5642 49.0955 29.3115 52 34.7193 52C42.9344 52 49.643 45.3238 49.643 37.0981C49.6541 29.9125 44.4951 23.9085 37.7757 22.5103ZM26.7212 3.80423L34.1234 11.5964H29.3222C27.8916 11.5964 26.7212 10.4153 26.7212 8.98471V3.80423ZM8.14483 42.5927C6.11835 42.5927 4.50366 40.967 4.50366 38.9405V5.86325C4.50366 3.82565 6.11835 2.16772 8.14483 2.16772H24.5536V8.98471C24.5536 11.6182 26.6887 13.7641 29.3222 13.7641H35.6079V22.2283C35.283 22.2176 35.0228 22.1851 34.7411 22.1851C30.9587 22.1851 27.4798 23.6374 24.857 25.9135H11.0929C10.4967 25.9135 10.0091 26.401 10.0091 26.997C10.0091 27.5932 10.4967 28.0808 11.0929 28.0808H22.8413C22.0716 29.1647 21.4321 30.2486 20.9338 31.4408H11.0929C10.4967 31.4408 10.0091 31.9283 10.0091 32.5246C10.0091 33.1205 10.4967 33.6084 11.0929 33.6084H20.2292C19.9582 34.6924 19.8174 35.8952 19.8174 37.0981C19.8174 39.0488 20.1966 40.978 20.8794 42.6039H8.14483V42.5927ZM34.7304 49.8434C27.7075 49.8434 21.9958 44.1317 21.9958 37.1088C21.9958 30.0859 27.6964 24.3742 34.7304 24.3742C41.764 24.3742 47.4646 30.0859 47.4646 37.1088C47.4646 44.1317 41.7533 49.8434 34.7304 49.8434Z" fill="#579AFF"/>
<path d="M11.0914 22.6508H22.0701C22.6663 22.6508 23.1539 22.1628 23.1539 21.5669C23.1539 20.9706 22.6663 20.483 22.0701 20.483H11.0914C10.4951 20.483 10.0075 20.9706 10.0075 21.5669C10.0075 22.1628 10.4951 22.6508 11.0914 22.6508Z" fill="#579AFF"/>
<path d="M40.2804 36.8814L35.8263 41.6827V29.8479C35.8263 29.2515 35.3384 28.764 34.7424 28.764C34.1462 28.764 33.6586 29.2515 33.6586 29.8479V41.6827L29.1715 36.8814C28.7598 36.4482 28.0663 36.4157 27.6326 36.8275C27.1991 37.2393 27.1665 37.9221 27.5787 38.3557L33.9189 45.1727C34.1247 45.3893 34.4065 45.5195 34.7099 45.5195C35.0134 45.5195 35.2951 45.3893 35.501 45.1727L41.8522 38.3557C42.264 37.9221 42.2422 37.2286 41.8086 36.8275C41.3642 36.4157 40.6926 36.4482 40.2804 36.8814Z" fill="#579AFF"/>
</g>
</g>
<defs>
<clipPath id="clip0_3_228">
<rect width="52" height="52" fill="white"/>
</clipPath>
</defs>
</svg>
