<svg width="46" height="46" viewBox="0 0 46 46" fill="none" xmlns="http://www.w3.org/2000/svg">
<g clip-path="url(#clip0_0_181)">
<mask id="mask0_0_181" style="mask-type:luminance" maskUnits="userSpaceOnUse" x="0" y="0" width="46" height="46">
<path d="M46 0H0V46H46V0Z" fill="white"/>
</mask>
<g mask="url(#mask0_0_181)">
<path d="M2.898 11.96L27.508 0.459992C29.118 -0.276008 30.406 0.551992 30.406 2.29999V24.38C30.406 26.174 29.118 28.198 27.508 28.98L2.898 40.48C1.288 41.262 0 40.434 0 38.64V16.56C0 14.766 1.288 12.742 2.898 11.96Z" fill="#9583ED"/>
<path d="M18.538 16.9739L43.148 5.47391C44.758 4.73791 46.046 5.56591 46.046 7.31391V29.3939C46.046 31.1879 44.758 33.2119 43.148 33.9939L18.538 45.4939C16.928 46.2299 15.64 45.4019 15.64 43.6539V21.5739C15.64 19.7799 16.928 17.7099 18.538 16.9739Z" fill="#F768B1"/>
<path fill-rule="evenodd" clip-rule="evenodd" d="M30.452 11.4541V24.4721C30.452 26.2661 29.164 28.2901 27.554 29.0721L15.64 34.5461V21.5741C15.64 19.7801 16.928 17.7561 18.538 16.9741L30.452 11.4541Z" fill="#FD9D60"/>
</g>
</g>
<defs>
<clipPath id="clip0_0_181">
<rect width="46" height="46" fill="white"/>
</clipPath>
</defs>
</svg>
