<svg width="50" height="50" viewBox="0 0 50 50" fill="none" xmlns="http://www.w3.org/2000/svg">
<path d="M44.3237 47.0173H5.67633C2.54661 47.0173 0 44.4706 0 41.3409V8.57465C0 5.44493 2.54661 2.89832 5.67633 2.89832H44.3237C47.4534 2.89832 50 5.44493 50 8.57465V41.3409C50 44.4706 47.4534 47.0173 44.3237 47.0173ZM5.67633 4.58914C3.47883 4.58914 1.69082 6.37715 1.69082 8.57465V41.3409C1.69082 43.5384 3.47883 45.3264 5.67633 45.3264H44.3237C46.5212 45.3264 48.3092 43.5384 48.3092 41.3409V8.57465C48.3092 6.37715 46.5212 4.58914 44.3237 4.58914H5.67633Z" fill="#579AFF"/>
<path d="M42.3701 34.1101H29.0855C28.6185 34.1101 28.2401 33.7317 28.2401 33.2647C28.2401 32.7982 28.6185 32.4193 29.0855 32.4193H42.3701C42.8367 32.4193 43.2154 32.7982 43.2154 33.2647C43.2154 33.7317 42.8371 34.1101 42.3701 34.1101Z" fill="#579AFF"/>
<path d="M42.3701 40.2223H29.0855C28.6185 40.2223 28.2401 39.8439 28.2401 39.3769C28.2401 38.9103 28.6185 38.5315 29.0855 38.5315H42.3701C42.8367 38.5315 43.2154 38.9103 43.2154 39.3769C43.2154 39.8439 42.8371 40.2223 42.3701 40.2223Z" fill="#579AFF"/>
<path d="M42.3701 21.8856H29.0855C28.6185 21.8856 28.2401 21.5072 28.2401 21.0402C28.2401 20.5737 28.6185 20.1948 29.0855 20.1948H42.3701C42.8367 20.1948 43.2154 20.5737 43.2154 21.0402C43.2154 21.5072 42.8371 21.8856 42.3701 21.8856Z" fill="#579AFF"/>
<path d="M42.3701 27.9979H29.0855C28.6185 27.9979 28.2401 27.6195 28.2401 27.1524C28.2401 26.6859 28.6185 26.3071 29.0855 26.3071H42.3701C42.8367 26.3071 43.2154 26.6859 43.2154 27.1524C43.2154 27.6195 42.8371 27.9979 42.3701 27.9979Z" fill="#579AFF"/>
<path d="M49.1546 14.2187H0.845411C0.378359 14.2187 0 13.8403 0 13.3733C0 12.9062 0.378359 12.5278 0.845411 12.5278H49.1546C49.6216 12.5278 50 12.9062 50 13.3733C50 13.8403 49.6216 14.2187 49.1546 14.2187Z" fill="#579AFF"/>
<path d="M12.1874 11.2051C10.7367 11.2051 9.55634 10.0253 9.55634 8.57455C9.55634 7.12386 10.7367 5.94397 12.1874 5.94397C13.6381 5.94397 14.818 7.12386 14.818 8.57455C14.818 10.0253 13.6381 11.2051 12.1874 11.2051ZM12.1874 7.63479C11.6689 7.63479 11.2471 8.05655 11.2471 8.57455C11.2471 9.09251 11.6689 9.5143 12.1874 9.5143C12.7054 9.5143 13.1271 9.09251 13.1271 8.57455C13.1271 8.05655 12.7054 7.63479 12.1874 7.63479Z" fill="#579AFF"/>
<path d="M6.09739 11.206C4.64716 11.206 3.4668 10.0261 3.4668 8.57541C3.4668 7.12473 4.64716 5.94482 6.09739 5.94482C7.54807 5.94482 8.72844 7.12473 8.72844 8.57541C8.72844 10.0261 7.54807 11.206 6.09739 11.206ZM6.09739 7.63565C5.57939 7.63565 5.15762 8.05741 5.15762 8.57541C5.15762 9.0934 5.57939 9.51518 6.09739 9.51518C6.61586 9.51518 7.03762 9.0934 7.03762 8.57541C7.03762 8.05741 6.61586 7.63565 6.09739 7.63565Z" fill="#579AFF"/>
<path d="M18.28 11.206C16.8293 11.206 15.6494 10.0261 15.6494 8.57541C15.6494 7.12473 16.8293 5.94482 18.28 5.94482C19.7307 5.94482 20.9111 7.12473 20.9111 8.57541C20.9111 10.0261 19.7307 11.206 18.28 11.206ZM18.28 7.63565C17.7615 7.63565 17.3403 8.05741 17.3403 8.57541C17.3403 9.0934 17.762 9.51518 18.28 9.51518C18.7985 9.51518 19.2203 9.0934 19.2203 8.57541C19.2203 8.05741 18.7985 7.63565 18.28 7.63565Z" fill="#579AFF"/>
<path d="M22.7056 40.2223H7.36745C6.9004 40.2223 6.52204 39.844 6.52204 39.377V21.0402C6.52204 20.5737 6.9004 20.1948 7.36745 20.1948H22.7056C23.1727 20.1948 23.5511 20.5737 23.5511 21.0402V39.377C23.5511 39.844 23.1727 40.2223 22.7056 40.2223ZM8.21286 38.5315H21.8602V21.8856H8.21286V38.5315Z" fill="#579AFF"/>
</svg>
