<svg width="96" height="16" viewBox="0 0 96 16" fill="none" xmlns="http://www.w3.org/2000/svg">
<g clip-path="url(#clip0_17_48)">
<path d="M15.9583 5.82491C15.9071 5.66636 15.8104 5.52637 15.6802 5.42239C15.5501 5.31842 15.3922 5.25506 15.2262 5.24021L10.6082 4.82085L8.78209 0.546681C8.6474 0.233454 8.34077 0.0307617 8.00007 0.0307617C7.65937 0.0307617 7.35271 0.233486 7.21808 0.547462L5.39197 4.82088L0.7732 5.24021C0.607451 5.25539 0.449802 5.31888 0.3198 5.42282C0.189799 5.52676 0.0931609 5.66657 0.0418688 5.82491C-0.0634776 6.14892 0.0338061 6.50427 0.290531 6.72828L3.78125 9.7896L2.75191 14.3238C2.67659 14.6572 2.80597 15.0018 3.0826 15.2017C3.23126 15.3092 3.40524 15.3639 3.58065 15.3639C3.7319 15.3639 3.8819 15.3231 4.01659 15.2425L8.00007 12.8617L11.9821 15.2425C12.2735 15.4178 12.6408 15.4018 12.9168 15.2017C13.0519 15.1039 13.1553 14.9686 13.2141 14.8125C13.2729 14.6564 13.2845 14.4864 13.2475 14.3238L12.2182 9.7896L15.7089 6.7289C15.8345 6.61923 15.925 6.47508 15.9694 6.31437C16.0137 6.15365 16.0099 5.98345 15.9583 5.82491Z" fill="#FFD466"/>
</g>
<g clip-path="url(#clip1_17_48)">
<path d="M35.9583 5.82491C35.9071 5.66636 35.8104 5.52637 35.6802 5.42239C35.5501 5.31842 35.3922 5.25506 35.2262 5.24021L30.6082 4.82085L28.7821 0.546681C28.6474 0.233454 28.3408 0.0307617 28.0001 0.0307617C27.6594 0.0307617 27.3527 0.233486 27.2181 0.547462L25.392 4.82088L20.7732 5.24021C20.6075 5.25539 20.4498 5.31888 20.3198 5.42282C20.1898 5.52676 20.0932 5.66657 20.0419 5.82491C19.9365 6.14892 20.0338 6.50427 20.2905 6.72828L23.7812 9.7896L22.7519 14.3238C22.6766 14.6572 22.806 15.0018 23.0826 15.2017C23.2313 15.3092 23.4052 15.3639 23.5806 15.3639C23.7319 15.3639 23.8819 15.3231 24.0166 15.2425L28.0001 12.8617L31.9821 15.2425C32.2735 15.4178 32.6408 15.4018 32.9168 15.2017C33.0519 15.1039 33.1553 14.9686 33.2141 14.8125C33.2729 14.6564 33.2845 14.4864 33.2475 14.3238L32.2182 9.7896L35.7089 6.7289C35.8345 6.61923 35.925 6.47508 35.9694 6.31437C36.0137 6.15365 36.0099 5.98345 35.9583 5.82491Z" fill="#FFD466"/>
</g>
<g clip-path="url(#clip2_17_48)">
<path d="M55.9583 5.82491C55.9071 5.66636 55.8104 5.52637 55.6802 5.42239C55.5501 5.31842 55.3922 5.25506 55.2262 5.24021L50.6082 4.82085L48.7821 0.546681C48.6474 0.233454 48.3408 0.0307617 48.0001 0.0307617C47.6594 0.0307617 47.3527 0.233486 47.2181 0.547462L45.392 4.82088L40.7732 5.24021C40.6075 5.25539 40.4498 5.31888 40.3198 5.42282C40.1898 5.52676 40.0932 5.66657 40.0419 5.82491C39.9365 6.14892 40.0338 6.50427 40.2905 6.72828L43.7812 9.7896L42.7519 14.3238C42.6766 14.6572 42.806 15.0018 43.0826 15.2017C43.2313 15.3092 43.4052 15.3639 43.5806 15.3639C43.7319 15.3639 43.8819 15.3231 44.0166 15.2425L48.0001 12.8617L51.9821 15.2425C52.2735 15.4178 52.6408 15.4018 52.9168 15.2017C53.0519 15.1039 53.1553 14.9686 53.2141 14.8125C53.2729 14.6564 53.2845 14.4864 53.2475 14.3238L52.2182 9.7896L55.7089 6.7289C55.8345 6.61923 55.925 6.47508 55.9694 6.31437C56.0137 6.15365 56.0099 5.98345 55.9583 5.82491Z" fill="#FFD466"/>
</g>
<g clip-path="url(#clip3_17_48)">
<path d="M75.9583 5.82491C75.9071 5.66636 75.8104 5.52637 75.6802 5.42239C75.5501 5.31842 75.3922 5.25506 75.2262 5.24021L70.6082 4.82085L68.7821 0.546681C68.6474 0.233454 68.3408 0.0307617 68.0001 0.0307617C67.6594 0.0307617 67.3527 0.233486 67.2181 0.547462L65.392 4.82088L60.7732 5.24021C60.6075 5.25539 60.4498 5.31888 60.3198 5.42282C60.1898 5.52676 60.0932 5.66657 60.0419 5.82491C59.9365 6.14892 60.0338 6.50427 60.2905 6.72828L63.7812 9.7896L62.7519 14.3238C62.6766 14.6572 62.806 15.0018 63.0826 15.2017C63.2313 15.3092 63.4052 15.3639 63.5806 15.3639C63.7319 15.3639 63.8819 15.3231 64.0166 15.2425L68.0001 12.8617L71.9821 15.2425C72.2735 15.4178 72.6408 15.4018 72.9168 15.2017C73.0519 15.1039 73.1553 14.9686 73.2141 14.8125C73.2729 14.6564 73.2845 14.4864 73.2475 14.3238L72.2182 9.7896L75.7089 6.7289C75.8345 6.61923 75.925 6.47508 75.9694 6.31437C76.0137 6.15365 76.0099 5.98345 75.9583 5.82491Z" fill="#FFD466"/>
</g>
<g clip-path="url(#clip4_17_48)">
<path d="M95.9583 5.82491C95.9071 5.66636 95.8104 5.52637 95.6802 5.42239C95.5501 5.31842 95.3922 5.25506 95.2262 5.24021L90.6082 4.82085L88.7821 0.546681C88.6474 0.233454 88.3408 0.0307617 88.0001 0.0307617C87.6594 0.0307617 87.3527 0.233486 87.2181 0.547462L85.392 4.82088L80.7732 5.24021C80.6075 5.25539 80.4498 5.31888 80.3198 5.42282C80.1898 5.52676 80.0932 5.66657 80.0419 5.82491C79.9365 6.14892 80.0338 6.50427 80.2905 6.72828L83.7812 9.7896L82.7519 14.3238C82.6766 14.6572 82.806 15.0018 83.0826 15.2017C83.2313 15.3092 83.4052 15.3639 83.5806 15.3639C83.7319 15.3639 83.8819 15.3231 84.0166 15.2425L88.0001 12.8617L91.9821 15.2425C92.2735 15.4178 92.6408 15.4018 92.9168 15.2017C93.0519 15.1039 93.1553 14.9686 93.2141 14.8125C93.2729 14.6564 93.2845 14.4864 93.2475 14.3238L92.2182 9.7896L95.7089 6.7289C95.8345 6.61923 95.925 6.47508 95.9694 6.31437C96.0137 6.15365 96.0099 5.98345 95.9583 5.82491Z" fill="#FFD466"/>
</g>
<defs>
<clipPath id="clip0_17_48">
<rect width="16" height="16" fill="white"/>
</clipPath>
<clipPath id="clip1_17_48">
<rect width="16" height="16" fill="white" transform="translate(20)"/>
</clipPath>
<clipPath id="clip2_17_48">
<rect width="16" height="16" fill="white" transform="translate(40)"/>
</clipPath>
<clipPath id="clip3_17_48">
<rect width="16" height="16" fill="white" transform="translate(60)"/>
</clipPath>
<clipPath id="clip4_17_48">
<rect width="16" height="16" fill="white" transform="translate(80)"/>
</clipPath>
</defs>
</svg>
